<svg width="1093" height="843" viewBox="0 0 1093 843" fill="none" xmlns="http://www.w3.org/2000/svg">
<path d="M669.979 754.151C669.979 754.151 668.756 758.041 677.864 752.468C686.972 746.894 709.711 742.634 720.465 743.994C731.22 745.354 723.628 719.788 715.645 715.684C707.663 711.579 682.695 729.302 669.979 754.151Z" fill="#F5AE42"/>
<g opacity="0.3">
<path d="M670.698 753.291C670.698 753.291 668.75 758.041 677.861 752.468C686.971 746.895 709.707 742.635 720.462 743.995C731.217 745.354 723.624 719.788 715.642 715.684C707.659 711.579 683.415 728.442 670.698 753.291Z" fill="#6C174D"/>
</g>
<path d="M671.548 755.585C671.069 755.585 670.69 755.471 670.41 755.244C669.552 754.55 670.016 753.196 670.036 753.138C670.042 753.12 670.049 753.103 670.058 753.086C675.902 741.666 683.445 733.304 688.742 728.302C695.454 721.961 702.537 717.285 708.175 715.471C711.429 714.423 714.006 714.369 715.835 715.31C718.734 716.8 721.759 721.063 723.926 726.711C726.05 732.246 726.748 737.692 725.747 740.923C725.025 743.253 723.485 744.464 721.267 744.464C720.981 744.463 720.695 744.445 720.412 744.408C709.345 743.009 686.795 747.491 678.081 752.823C675.062 754.672 672.903 755.585 671.548 755.585ZM670.818 753.439C670.741 753.683 670.618 754.337 670.938 754.594C671.205 754.81 672.483 755.267 677.644 752.109C681.961 749.467 689.551 746.956 698.466 745.219C707.098 743.538 715.34 742.923 720.517 743.576C722.77 743.86 724.263 742.885 724.947 740.673C725.895 737.612 725.205 732.376 723.145 727.009C721.082 721.628 718.133 717.43 715.453 716.052C713.851 715.229 711.423 715.302 708.431 716.265C702.909 718.043 695.941 722.651 689.316 728.908C684.071 733.865 676.606 742.14 670.818 753.441V753.439Z" fill="#6C174D"/>
<path d="M716.208 720.58C714.944 720.289 716.334 719.816 714.658 718.143C712.983 716.471 711.141 717.846 711.141 717.846C711.44 717.235 711.508 716.665 711.186 716.215C709.744 714.194 705.958 715.459 704.572 713.838C703.187 712.217 699.878 713.703 699.878 713.703C699.878 713.703 680.121 725.496 674.465 739.08C668.809 752.663 669.241 756.833 671.699 755.893C674.157 754.953 675.969 752.833 677.769 754.503C679.569 756.173 677.322 759.303 679.498 760.843C680.718 761.707 683.54 760.156 682.183 757.842C680.827 755.528 679.031 751.238 682.073 748.936C685.116 746.635 692.101 745.41 691.688 748.642C690.666 756.653 699.188 753.256 696.539 749.871C694.291 746.996 696.359 741.949 701.372 744.728C705.578 747.06 705.044 743.884 709.193 742.521C712.287 741.504 717.985 741.471 717.985 741.471C721.983 739.123 718.367 737.964 718.367 737.964C718.367 737.964 721.717 735.385 720.877 733.603C720.036 731.822 720.444 729.014 720.518 726.172C720.592 723.33 717.472 720.871 716.208 720.58Z" fill="#FFCC02"/>
<g opacity="0.3">
<path d="M716.207 720.581C714.943 720.29 716.333 719.817 714.657 718.144C712.982 716.472 711.139 717.847 711.139 717.847C711.439 717.236 711.507 716.666 711.185 716.216C709.743 714.195 705.957 715.46 704.571 713.839C703.186 712.218 699.877 713.704 699.877 713.704C699.877 713.704 699.419 713.979 698.62 714.491C704.801 716.115 717.559 721.324 715.208 739.862C715.208 739.862 690.534 741.632 683.752 745.848C678.874 748.88 673.972 754.579 670.168 755.311C670.44 756.007 670.983 756.167 671.698 755.894C674.156 754.953 675.968 752.834 677.768 754.504C679.568 756.174 677.321 759.304 679.497 760.844C680.717 761.708 683.539 760.157 682.182 757.843C680.826 755.529 679.03 751.239 682.072 748.937C685.115 746.635 692.1 745.411 691.687 748.643C690.665 756.654 699.187 753.257 696.538 749.872C694.29 746.997 696.358 741.95 701.371 744.729C705.577 747.061 705.043 743.885 709.192 742.522C712.286 741.505 717.984 741.472 717.984 741.472C721.982 739.124 718.366 737.965 718.366 737.965C718.366 737.965 721.716 735.386 720.876 733.604C720.035 731.823 720.443 729.015 720.517 726.173C720.591 723.331 717.471 720.872 716.207 720.581Z" fill="#6C174D"/>
</g>
<g opacity="0.65">
<path d="M717.288 721.216C717.415 721.247 717.538 721.288 717.658 721.34C717.353 721.113 717.027 720.916 716.684 720.752C716.712 720.969 716.81 721.106 717.288 721.216Z" fill="white"/>
<path d="M719.482 738.612L719.461 738.592L719.449 738.601L719.482 738.612Z" fill="white"/>
<path d="M712.221 718.481C712.221 718.481 713.3 717.677 714.56 718.05C713.831 717.376 713.077 717.258 712.464 717.337C712.516 717.684 712.421 718.073 712.221 718.481Z" fill="white"/>
<path d="M710.9 715.883C709.65 714.679 707.299 715.032 705.705 714.528C706.786 715.692 709.183 715.279 710.9 715.883Z" fill="white"/>
<path d="M699.878 713.703C699.878 713.703 691.085 718.952 683.552 726.479C683.4 726.592 683.26 726.719 683.131 726.857C683.05 726.946 682.973 727.04 682.902 727.137C679.399 730.736 676.239 734.82 674.465 739.079C669.153 751.836 669.211 756.29 671.273 756.005C670.562 754.362 671.485 749.464 675.545 739.714C677.072 736.047 679.627 732.51 682.543 729.3C682.603 729.411 682.68 729.511 682.772 729.597C683.422 730.197 684.631 729.941 685.477 729.027C686.323 728.112 686.483 726.886 685.837 726.288C685.774 726.231 685.705 726.182 685.631 726.14C692.921 719.139 700.451 713.776 700.451 713.776C700.451 713.776 703.007 713.422 704.555 713.817C703.154 712.232 699.878 713.703 699.878 713.703Z" fill="white"/>
</g>
<path d="M680.34 761.506C679.939 761.506 679.56 761.402 679.258 761.187C677.932 760.248 678.013 758.81 678.085 757.54C678.144 756.478 678.201 755.474 677.486 754.81C676.48 753.878 675.515 754.35 673.895 755.264C673.254 755.626 672.59 756 671.849 756.284C670.959 756.625 670.427 756.341 670.138 756.044C668.293 754.144 671.263 745.683 674.079 738.92C677.033 731.823 683.838 725.245 689.027 720.975C694.633 716.362 699.615 713.374 699.665 713.345C699.679 713.336 699.693 713.329 699.708 713.322C699.854 713.256 703.32 711.728 704.891 713.567C705.435 714.202 706.522 714.316 707.673 714.437C709.071 714.583 710.655 714.749 711.528 715.972C711.752 716.286 711.847 716.647 711.813 717.051C712.691 716.773 713.888 716.784 714.955 717.848C715.959 718.849 715.991 719.522 716.01 719.925C716.011 719.976 716.015 720.027 716.022 720.078C716.048 720.094 716.122 720.13 716.303 720.172C717.759 720.506 721.021 723.125 720.941 726.184C720.925 726.812 720.892 727.44 720.861 728.047C720.752 730.148 720.649 732.13 721.26 733.426C722.019 735.037 720.145 736.982 719.156 737.857C719.634 738.124 720.204 738.582 720.28 739.266C720.375 740.116 719.694 740.956 718.2 741.835C718.137 741.872 718.064 741.892 717.991 741.892C717.934 741.892 712.324 741.937 709.327 742.924C707.834 743.414 706.997 744.137 706.258 744.775C704.883 745.962 703.901 746.613 701.171 745.099C699.3 744.062 697.692 744.095 696.757 745.189C695.777 746.335 695.827 748.283 696.872 749.62C697.635 750.599 697.671 751.742 696.964 752.679C696.104 753.816 694.435 754.301 693.164 753.783C692.258 753.414 690.808 752.249 691.274 748.597C691.342 748.068 691.172 747.705 690.739 747.455C689.15 746.535 684.666 747.505 682.325 749.277C679.398 751.493 681.503 755.861 682.544 757.637C683.212 758.778 683.075 759.949 682.178 760.772C681.655 761.249 680.971 761.506 680.34 761.506ZM676.327 753.466C676.908 753.466 677.485 753.668 678.055 754.196C679.06 755.128 678.986 756.435 678.921 757.588C678.853 758.793 678.794 759.833 679.742 760.505C680.196 760.827 681.054 760.665 681.613 760.151C681.962 759.831 682.454 759.133 681.822 758.056C680.668 756.087 678.358 751.224 681.822 748.605C684.229 746.786 689.107 745.537 691.161 746.726C691.889 747.147 692.215 747.83 692.105 748.698C691.812 750.993 692.3 752.522 693.48 753.003C694.401 753.379 695.665 753.003 696.296 752.17C696.573 751.803 696.931 751.05 696.212 750.131C694.932 748.493 694.891 746.082 696.12 744.644C697.319 743.239 699.359 743.135 701.577 744.364C703.935 745.672 704.528 745.159 705.711 744.139C706.47 743.484 707.414 742.669 709.066 742.126C711.981 741.168 717.025 741.066 717.871 741.057C719.307 740.193 719.475 739.626 719.448 739.362C719.393 738.85 718.538 738.461 718.243 738.365C718.171 738.342 718.107 738.299 718.057 738.241C718.008 738.183 717.974 738.114 717.961 738.039C717.948 737.964 717.956 737.887 717.983 737.816C718.01 737.745 718.056 737.683 718.116 737.636C718.915 737.019 721.07 734.988 720.503 733.785C719.802 732.298 719.91 730.213 720.025 728.006C720.056 727.404 720.088 726.781 720.105 726.164C720.171 723.618 717.298 721.261 716.116 720.989C715.357 720.815 715.199 720.495 715.174 719.965C715.159 719.648 715.138 719.213 714.364 718.441C712.971 717.053 711.454 718.136 711.39 718.184C711.315 718.238 711.223 718.265 711.13 718.262C711.038 718.258 710.949 718.224 710.877 718.165C710.806 718.105 710.756 718.024 710.736 717.933C710.716 717.842 710.726 717.748 710.766 717.664C711.148 716.881 710.921 716.564 710.847 716.459C710.193 715.543 708.927 715.41 707.585 715.27C706.322 715.138 705.016 715.001 704.255 714.111C703.294 712.987 700.932 713.696 700.073 714.077C699.717 714.291 694.924 717.206 689.55 721.63C684.438 725.836 677.74 732.307 674.852 739.241C672.782 744.213 671.414 748.197 670.781 751.082C670.068 754.338 670.513 755.228 670.739 755.46C670.801 755.523 670.989 755.716 671.55 755.502C672.234 755.24 672.87 754.881 673.484 754.534C674.421 754.007 675.377 753.466 676.327 753.466Z" fill="#6C174D"/>
<path d="M702.859 741.193C705.25 740.761 707.649 740.374 710.062 740.062C711.268 739.906 712.478 739.77 713.692 739.664C714.907 739.558 716.126 739.482 717.352 739.458C717.4 739.457 717.448 739.466 717.492 739.483C717.537 739.501 717.578 739.527 717.613 739.56C717.647 739.594 717.675 739.634 717.694 739.678C717.714 739.722 717.724 739.769 717.725 739.817C717.726 739.865 717.717 739.913 717.7 739.958C717.682 740.003 717.656 740.044 717.623 740.078C717.589 740.113 717.549 740.141 717.505 740.16C717.461 740.179 717.414 740.19 717.366 740.191H717.346C716.144 740.152 714.935 740.168 713.726 740.212C712.518 740.256 711.308 740.332 710.098 740.426C707.682 740.616 705.268 740.882 702.859 741.193Z" fill="#6C174D"/>
<g opacity="0.3">
<path d="M710.576 715.671L710.61 715.647L710.593 715.635C710.587 715.647 710.582 715.659 710.576 715.671Z" fill="#6C174D"/>
<path d="M719.959 723.998C719.885 726.84 719.477 729.647 720.317 731.429C720.361 731.523 720.395 731.621 720.417 731.723C720.258 730.112 720.471 728.152 720.523 726.173C720.543 725.389 720.319 724.633 719.958 723.944C719.958 723.964 719.959 723.981 719.959 723.998Z" fill="#6C174D"/>
<path d="M720.451 732.027C720.475 733.736 717.807 735.79 717.807 735.79C717.807 735.79 719.204 736.239 719.299 737.142C720.221 736.236 721.422 734.755 720.88 733.606C720.662 733.143 720.528 732.611 720.451 732.027Z" fill="#6C174D"/>
</g>
<path d="M705.197 726.204C708.021 724.378 709.128 721.071 707.671 718.817C706.214 716.564 702.743 716.217 699.919 718.043C697.096 719.869 695.988 723.176 697.445 725.43C698.903 727.684 702.373 728.03 705.197 726.204Z" fill="#E32529"/>
<g opacity="0.65">
<path d="M703.445 726.92C700.459 727.693 697.838 726.194 697.592 723.571C697.345 720.947 699.567 718.193 702.553 717.421C704.749 716.852 706.747 717.513 707.748 718.946C706.747 717.262 704.532 716.456 702.084 717.09C698.917 717.91 696.561 720.831 696.823 723.613C697.084 726.395 699.863 727.985 703.03 727.165C703.852 726.95 704.631 726.595 705.334 726.116C704.747 726.476 704.111 726.746 703.445 726.92V726.92Z" fill="white"/>
</g>
<path d="M703.035 718.229L703.726 725.591C705.66 724.745 707.001 722.841 706.829 721.016C706.658 719.192 705.032 718.058 703.035 718.229Z" fill="#BC1824"/>
<path d="M701.303 718.696C699.417 719.561 698.119 721.435 698.288 723.233C698.457 725.032 700.037 726.159 701.993 726.028L701.303 718.696Z" fill="#BC1824"/>
<path d="M701.303 718.696C699.417 719.561 698.119 721.435 698.288 723.233C698.457 725.032 700.037 726.159 701.993 726.028L701.303 718.696Z" fill="#BC1824"/>
<path d="M701.569 721.151C700.951 721.434 700.526 722.049 700.581 722.637C700.636 723.225 701.154 723.596 701.794 723.554L701.569 721.151Z" fill="#E32529"/>
<path d="M703.234 720.72C703.875 720.677 704.393 721.047 704.448 721.637C704.503 722.227 704.078 722.84 703.46 723.123L703.234 720.72Z" fill="#E32529"/>
<path d="M701.389 727.732C700.236 727.732 699.161 727.42 698.299 726.816C697.242 726.074 696.593 724.947 696.47 723.645C696.194 720.702 698.673 717.606 701.996 716.745C703.777 716.283 705.534 716.535 706.817 717.435C707.874 718.177 708.524 719.303 708.646 720.607C708.923 723.551 706.444 726.646 703.12 727.507C702.555 727.655 701.973 727.731 701.389 727.732V727.732ZM703.729 717.228C703.204 717.23 702.682 717.299 702.174 717.432C699.174 718.209 696.932 720.966 697.178 723.577C697.28 724.67 697.824 725.613 698.706 726.233C699.818 727.014 701.361 727.226 702.941 726.818C705.941 726.04 708.182 723.283 707.937 720.671C707.834 719.578 707.291 718.634 706.409 718.015C705.668 717.495 704.735 717.227 703.729 717.227V717.228Z" fill="#6C174D"/>
<path d="M700.646 724.417C700.684 724.518 700.715 724.622 700.738 724.728C700.766 724.825 700.778 724.926 700.773 725.027C700.767 725.093 700.735 725.155 700.683 725.198C700.632 725.242 700.566 725.263 700.499 725.258C700.432 725.253 700.37 725.222 700.325 725.172C700.281 725.121 700.258 725.055 700.262 724.988C700.264 724.965 700.269 724.942 700.277 724.92C700.315 724.826 700.367 724.739 700.432 724.663C700.497 724.576 700.569 724.494 700.646 724.417Z" fill="#F4C345"/>
<path d="M699.833 723.677C699.817 723.784 699.793 723.891 699.762 723.995C699.738 724.093 699.7 724.187 699.647 724.273C699.628 724.301 699.605 724.325 699.577 724.344C699.549 724.363 699.517 724.376 699.485 724.383C699.452 724.389 699.418 724.39 699.385 724.383C699.352 724.377 699.32 724.364 699.292 724.345C699.264 724.327 699.24 724.303 699.221 724.275C699.203 724.247 699.189 724.216 699.183 724.183C699.176 724.15 699.176 724.116 699.182 724.083C699.189 724.05 699.202 724.018 699.22 723.99C699.233 723.971 699.249 723.953 699.266 723.938C699.345 723.874 699.434 723.824 699.528 723.788C699.627 723.743 699.729 723.706 699.833 723.677V723.677Z" fill="#F4C345"/>
<path d="M699.617 722.491C699.554 722.571 699.485 722.647 699.41 722.717C699.346 722.785 699.27 722.842 699.187 722.885C699.126 722.912 699.057 722.913 698.994 722.89C698.932 722.866 698.881 722.819 698.853 722.759C698.824 722.699 698.82 722.63 698.842 722.567C698.863 722.504 698.909 722.451 698.968 722.421C698.991 722.411 699.016 722.403 699.041 722.399C699.134 722.389 699.229 722.395 699.32 722.416C699.421 722.434 699.52 722.458 699.617 722.491V722.491Z" fill="#F4C345"/>
<path d="M700.072 721.278C699.98 721.304 699.885 721.323 699.789 721.334C699.703 721.35 699.614 721.35 699.528 721.334C699.463 721.318 699.406 721.277 699.371 721.22C699.335 721.163 699.324 721.094 699.338 721.029C699.353 720.963 699.392 720.906 699.448 720.869C699.504 720.832 699.573 720.819 699.639 720.832C699.665 720.838 699.691 720.848 699.715 720.862C699.789 720.91 699.853 720.971 699.906 721.042C699.968 721.116 700.023 721.195 700.072 721.278V721.278Z" fill="#F4C345"/>
<path d="M701.038 720.463C700.948 720.42 700.862 720.37 700.78 720.314C700.701 720.267 700.632 720.207 700.574 720.137C700.533 720.082 700.515 720.014 700.524 719.947C700.533 719.879 700.569 719.818 700.623 719.777C700.677 719.736 700.746 719.718 700.813 719.727C700.881 719.736 700.942 719.772 700.983 719.826C700.999 719.847 701.012 719.871 701.021 719.895C701.048 719.982 701.06 720.074 701.056 720.165C701.058 720.265 701.052 720.364 701.038 720.463V720.463Z" fill="#F4C345"/>
<path d="M704.792 723.334C704.88 723.385 704.964 723.443 705.042 723.507C705.118 723.562 705.184 723.629 705.238 723.706C705.256 723.734 705.268 723.766 705.275 723.799C705.281 723.832 705.28 723.866 705.273 723.899C705.266 723.932 705.252 723.963 705.233 723.991C705.214 724.019 705.189 724.042 705.161 724.06C705.133 724.079 705.101 724.091 705.068 724.097C705.035 724.103 705.001 724.103 704.968 724.096C704.935 724.088 704.903 724.075 704.876 724.056C704.848 724.037 704.824 724.012 704.806 723.984C704.792 723.962 704.782 723.938 704.775 723.914C704.753 723.823 704.747 723.729 704.756 723.636C704.761 723.535 704.773 723.434 704.792 723.334V723.334Z" fill="#F4C345"/>
<path d="M705.414 722.207C705.509 722.191 705.605 722.182 705.702 722.18C705.789 722.173 705.877 722.181 705.961 722.206C706.026 722.227 706.08 722.273 706.111 722.334C706.141 722.395 706.147 722.465 706.125 722.53C706.104 722.595 706.058 722.648 705.997 722.679C705.936 722.71 705.866 722.715 705.801 722.694C705.775 722.685 705.75 722.672 705.728 722.656C705.66 722.601 705.602 722.534 705.557 722.458C705.503 722.378 705.455 722.295 705.414 722.207V722.207Z" fill="#F4C345"/>
<path d="M705.4 720.954C705.467 720.879 705.539 720.81 705.615 720.747C705.683 720.684 705.76 720.634 705.845 720.598C705.908 720.576 705.977 720.58 706.037 720.608C706.098 720.636 706.145 720.687 706.169 720.749C706.193 720.811 706.192 720.88 706.165 720.942C706.139 721.003 706.09 721.052 706.029 721.078C706.004 721.087 705.978 721.093 705.952 721.094C705.861 721.096 705.771 721.082 705.685 721.053C705.588 721.028 705.492 720.994 705.4 720.954V720.954Z" fill="#F4C345"/>
<path d="M704.754 720.011C704.773 719.906 704.8 719.803 704.835 719.702C704.862 719.607 704.904 719.516 704.959 719.434C704.981 719.405 705.009 719.38 705.041 719.362C705.073 719.344 705.108 719.333 705.145 719.33C705.181 719.327 705.218 719.332 705.253 719.344C705.287 719.356 705.319 719.376 705.345 719.401C705.371 719.427 705.392 719.458 705.405 719.492C705.419 719.526 705.424 719.563 705.422 719.599C705.42 719.636 705.411 719.672 705.394 719.704C705.377 719.737 705.353 719.765 705.324 719.788C705.244 719.846 705.155 719.891 705.06 719.92C704.961 719.958 704.858 719.988 704.754 720.011V720.011Z" fill="#F4C345"/>
<path d="M703.703 719.712C703.669 719.609 703.642 719.503 703.623 719.396C703.6 719.298 703.593 719.196 703.601 719.095C703.611 719.03 703.646 718.97 703.699 718.93C703.752 718.89 703.818 718.872 703.884 718.88C703.95 718.887 704.01 718.92 704.052 718.972C704.094 719.023 704.115 719.089 704.11 719.155C704.107 719.178 704.101 719.201 704.092 719.222C704.051 719.315 703.995 719.4 703.927 719.474C703.858 719.559 703.784 719.638 703.703 719.712V719.712Z" fill="#F4C345"/>
<path d="M703.726 725.948C703.637 725.948 703.552 725.915 703.487 725.855C703.421 725.796 703.381 725.714 703.372 725.626L702.681 718.264C702.677 718.217 702.682 718.17 702.696 718.125C702.71 718.08 702.732 718.039 702.762 718.003C702.792 717.967 702.829 717.937 702.871 717.915C702.912 717.894 702.958 717.88 703.004 717.876C705.239 717.683 706.995 718.991 707.183 720.985C707.365 722.924 705.971 724.998 703.869 725.918C703.824 725.938 703.775 725.948 703.726 725.948V725.948ZM703.423 718.568L704.031 725.045C705.608 724.17 706.616 722.556 706.476 721.051C706.337 719.571 705.08 718.568 703.429 718.568H703.423Z" fill="#BC1824"/>
<path d="M701.69 726.391C699.666 726.391 698.112 725.117 697.938 723.265C697.757 721.337 699.082 719.325 701.159 718.373C701.211 718.349 701.267 718.339 701.324 718.341C701.381 718.344 701.436 718.36 701.485 718.389C701.534 718.417 701.576 718.457 701.606 718.504C701.637 718.552 701.656 718.606 701.661 718.663L702.348 725.992C702.353 726.04 702.348 726.087 702.334 726.133C702.319 726.178 702.296 726.22 702.266 726.256C702.235 726.292 702.197 726.322 702.155 726.343C702.112 726.365 702.066 726.377 702.019 726.38C701.907 726.388 701.797 726.391 701.69 726.391ZM701.002 719.254C699.478 720.139 698.506 721.732 698.644 723.198C698.782 724.665 699.978 725.65 701.604 725.681L701.002 719.254Z" fill="#BC1824"/>
<path d="M692.335 739.067C694.976 737.359 696.012 734.265 694.649 732.157C693.285 730.049 690.039 729.725 687.398 731.433C684.756 733.141 683.72 736.234 685.084 738.342C686.447 740.451 689.693 740.775 692.335 739.067Z" fill="#E32529"/>
<g opacity="0.65">
<path d="M690.695 739.735C687.902 740.461 685.45 739.056 685.22 736.603C684.99 734.15 687.067 731.572 689.861 730.849C691.915 730.316 693.784 730.935 694.721 732.275C693.784 730.7 691.712 729.945 689.422 730.539C686.46 731.306 684.257 734.038 684.501 736.639C684.745 739.241 687.345 740.729 690.307 739.962C691.076 739.761 691.805 739.429 692.462 738.981C691.913 739.318 691.318 739.572 690.695 739.735V739.735Z" fill="white"/>
</g>
<path d="M690.311 731.608L690.956 738.495C692.765 737.704 694.019 735.922 693.859 734.217C693.699 732.512 692.178 731.445 690.311 731.608Z" fill="#BC1824"/>
<path d="M688.69 732.043C686.925 732.852 685.711 734.604 685.869 736.285C686.028 737.966 687.505 739.022 689.334 738.9L688.69 732.043Z" fill="#BC1824"/>
<path d="M688.69 732.043C686.925 732.852 685.711 734.604 685.869 736.285C686.028 737.966 687.505 739.022 689.334 738.9L688.69 732.043Z" fill="#BC1824"/>
<path d="M688.939 734.341C688.36 734.606 687.963 735.181 688.014 735.731C688.066 736.28 688.549 736.628 689.149 736.587L688.939 734.341Z" fill="#E32529"/>
<path d="M690.498 733.937C691.097 733.897 691.581 734.242 691.633 734.793C691.684 735.344 691.287 735.918 690.709 736.183L690.498 733.937Z" fill="#E32529"/>
<path d="M688.77 740.53C687.685 740.53 686.672 740.236 685.86 739.667C684.863 738.967 684.251 737.905 684.135 736.675C683.875 733.906 686.205 730.994 689.33 730.184C691.005 729.75 692.659 729.987 693.867 730.834C694.864 731.533 695.477 732.595 695.592 733.825C695.852 736.595 693.522 739.506 690.398 740.316C689.866 740.456 689.319 740.528 688.77 740.53V740.53ZM690.959 730.704C690.471 730.706 689.985 730.77 689.513 730.895C686.722 731.618 684.636 734.18 684.864 736.608C684.959 737.621 685.462 738.494 686.281 739.069C687.312 739.795 688.747 739.99 690.215 739.61C693.006 738.887 695.092 736.325 694.864 733.897C694.769 732.884 694.265 732.01 693.447 731.436C692.759 730.952 691.893 730.704 690.959 730.704V730.704Z" fill="#6C174D"/>
<path d="M688.587 737.503C688.64 737.582 688.688 737.665 688.73 737.751C688.774 737.83 688.805 737.914 688.824 738.002C688.829 738.029 688.829 738.057 688.823 738.084C688.817 738.112 688.806 738.137 688.791 738.16C688.775 738.183 688.755 738.202 688.732 738.217C688.708 738.232 688.682 738.243 688.655 738.248C688.628 738.253 688.6 738.252 688.573 738.247C688.546 738.241 688.52 738.23 688.497 738.214C688.475 738.198 688.455 738.178 688.44 738.155C688.425 738.132 688.415 738.106 688.41 738.079C688.407 738.062 688.406 738.044 688.407 738.027C688.416 737.938 688.438 737.85 688.472 737.767C688.504 737.676 688.543 737.588 688.587 737.503V737.503Z" fill="#F4C345"/>
<path d="M687.638 737.122C687.642 737.222 687.64 737.322 687.631 737.421C687.627 737.515 687.61 737.609 687.58 737.698C687.571 737.724 687.556 737.748 687.537 737.769C687.519 737.789 687.496 737.805 687.471 737.817C687.446 737.829 687.419 737.835 687.391 737.836C687.363 737.837 687.336 737.833 687.31 737.823C687.284 737.814 687.26 737.799 687.24 737.78C687.219 737.762 687.203 737.739 687.191 737.714C687.18 737.689 687.173 737.662 687.172 737.634C687.171 737.606 687.175 737.579 687.185 737.553C687.19 737.538 687.198 737.523 687.207 737.509C687.262 737.432 687.327 737.364 687.4 737.305C687.475 737.238 687.555 737.177 687.638 737.122V737.122Z" fill="#F4C345"/>
<path d="M687.136 736.177C687.094 736.263 687.046 736.347 686.992 736.427C686.945 736.504 686.887 736.574 686.82 736.635C686.799 736.655 686.775 736.669 686.748 736.679C686.721 736.688 686.693 736.692 686.664 736.69C686.636 736.689 686.608 736.681 686.583 736.669C686.558 736.656 686.535 736.638 686.517 736.616C686.499 736.595 686.485 736.57 686.476 736.543C686.468 736.516 686.465 736.487 686.468 736.459C686.471 736.431 686.479 736.403 686.493 736.378C686.507 736.354 686.525 736.332 686.547 736.314C686.56 736.303 686.575 736.294 686.59 736.286C686.673 736.248 686.76 736.222 686.85 736.21C686.944 736.192 687.04 736.181 687.136 736.177V736.177Z" fill="#F4C345"/>
<path d="M687.25 735.002C687.174 735.049 687.095 735.09 687.012 735.124C686.938 735.161 686.858 735.186 686.776 735.198C686.721 735.203 686.665 735.187 686.621 735.152C686.578 735.116 686.55 735.065 686.544 735.01C686.538 734.954 686.555 734.898 686.59 734.855C686.625 734.811 686.676 734.783 686.732 734.777C686.751 734.775 686.77 734.775 686.789 734.777C686.87 734.794 686.948 734.823 687.02 734.864C687.1 734.904 687.177 734.95 687.25 735.002V735.002Z" fill="#F4C345"/>
<path d="M687.948 734.009C687.861 733.997 687.775 733.978 687.691 733.952C687.613 733.933 687.537 733.901 687.468 733.858C687.424 733.826 687.394 733.778 687.384 733.723C687.375 733.669 687.387 733.613 687.417 733.568C687.448 733.523 687.496 733.491 687.55 733.48C687.604 733.469 687.66 733.479 687.706 733.509C687.722 733.52 687.736 733.533 687.749 733.547C687.798 733.612 687.837 733.683 687.864 733.76C687.898 733.841 687.926 733.924 687.948 734.009V734.009Z" fill="#F4C345"/>
<path d="M691.954 736.382C692.031 736.433 692.104 736.49 692.173 736.551C692.239 736.606 692.298 736.67 692.346 736.742C692.361 736.768 692.371 736.796 692.374 736.826C692.378 736.856 692.375 736.886 692.366 736.914C692.357 736.943 692.342 736.969 692.323 736.991C692.303 737.013 692.278 737.031 692.251 737.043C692.224 737.056 692.195 737.062 692.165 737.062C692.135 737.062 692.106 737.056 692.078 737.043C692.051 737.031 692.027 737.013 692.007 736.991C691.987 736.969 691.973 736.942 691.964 736.914C691.942 736.831 691.932 736.744 691.937 736.658C691.936 736.566 691.942 736.473 691.954 736.382Z" fill="#F4C345"/>
<path d="M692.535 735.327C692.622 735.318 692.709 735.314 692.796 735.317C692.877 735.316 692.957 735.327 693.034 735.351C693.087 735.369 693.13 735.408 693.155 735.459C693.179 735.509 693.182 735.568 693.163 735.62C693.144 735.673 693.105 735.716 693.055 735.741C693.004 735.765 692.946 735.768 692.893 735.749C692.875 735.743 692.858 735.734 692.842 735.722C692.778 735.673 692.722 735.614 692.677 735.547C692.624 735.477 692.577 735.404 692.535 735.327V735.327Z" fill="#F4C345"/>
<path d="M692.521 734.155C692.585 734.091 692.654 734.032 692.727 733.978C692.791 733.925 692.864 733.883 692.942 733.852C692.97 733.841 693 733.837 693.03 733.84C693.06 733.842 693.09 733.851 693.116 733.865C693.142 733.88 693.165 733.9 693.183 733.924C693.201 733.948 693.214 733.976 693.22 734.005C693.227 734.035 693.227 734.065 693.22 734.095C693.214 734.124 693.201 734.152 693.183 734.176C693.165 734.2 693.142 734.22 693.116 734.235C693.09 734.25 693.06 734.258 693.03 734.261C692.946 734.264 692.862 734.255 692.781 734.233C692.693 734.213 692.606 734.187 692.521 734.155Z" fill="#F4C345"/>
<path d="M691.918 733.273C691.941 733.179 691.971 733.086 692.007 732.996C692.036 732.909 692.078 732.827 692.13 732.753C692.165 732.71 692.214 732.683 692.269 732.676C692.323 732.67 692.378 732.685 692.422 732.718C692.465 732.751 692.494 732.8 692.502 732.854C692.511 732.908 692.498 732.963 692.466 733.008C692.456 733.022 692.444 733.034 692.431 733.046C692.358 733.101 692.277 733.145 692.192 733.177C692.103 733.216 692.011 733.248 691.918 733.273V733.273Z" fill="#F4C345"/>
<path d="M690.935 732.993C690.909 732.898 690.89 732.8 690.877 732.702C690.86 732.61 690.857 732.516 690.867 732.423C690.869 732.395 690.878 732.368 690.892 732.343C690.905 732.318 690.924 732.296 690.946 732.279C690.968 732.261 690.994 732.248 691.021 732.241C691.048 732.233 691.077 732.232 691.105 732.235C691.133 732.239 691.16 732.249 691.185 732.263C691.209 732.278 691.23 732.297 691.247 732.32C691.263 732.343 691.275 732.369 691.282 732.396C691.288 732.424 691.289 732.453 691.284 732.481C691.282 732.497 691.277 732.513 691.272 732.528C691.235 732.614 691.186 732.695 691.127 732.767C691.068 732.847 691.004 732.922 690.935 732.993Z" fill="#F4C345"/>
<path d="M690.955 738.862C690.864 738.862 690.776 738.827 690.709 738.766C690.641 738.705 690.599 738.62 690.59 738.53L689.945 731.643C689.94 731.594 689.946 731.546 689.96 731.5C689.974 731.454 689.998 731.411 690.029 731.374C690.059 731.337 690.097 731.306 690.14 731.284C690.183 731.261 690.23 731.248 690.278 731.243C692.386 731.061 694.046 732.297 694.223 734.182C694.395 736.009 693.083 737.963 691.103 738.831C691.056 738.851 691.006 738.862 690.955 738.862V738.862ZM690.709 731.959L691.27 737.928C692.707 737.11 693.622 735.63 693.493 734.25C693.367 732.893 692.22 731.972 690.71 731.959H690.709Z" fill="#BC1824"/>
<path d="M689.048 739.276C687.139 739.276 685.67 738.071 685.506 736.321C685.335 734.503 686.582 732.608 688.538 731.711C688.591 731.687 688.65 731.675 688.708 731.678C688.766 731.681 688.823 731.698 688.874 731.727C688.924 731.756 688.967 731.797 688.999 731.846C689.031 731.895 689.05 731.951 689.055 732.01L689.699 738.866C689.704 738.915 689.699 738.964 689.684 739.011C689.669 739.057 689.645 739.101 689.614 739.138C689.582 739.175 689.543 739.206 689.5 739.227C689.456 739.249 689.408 739.262 689.359 739.266C689.254 739.273 689.151 739.276 689.048 739.276ZM688.377 732.622C686.99 733.45 686.109 734.908 686.235 736.251C686.361 737.593 687.449 738.499 688.934 738.542L688.377 732.622Z" fill="#BC1824"/>
<path d="M682.361 734.508C678.493 734.667 678.417 736.628 679.645 739.655C681.969 738.684 683.507 736.978 682.361 734.508Z" fill="#5BB25B"/>
<path d="M679.552 740.332C679.476 740.332 679.402 740.308 679.339 740.264C679.277 740.219 679.231 740.156 679.206 740.084C678.615 738.356 678.182 736.595 679.007 735.415C679.58 734.594 680.676 734.177 682.355 734.142C682.424 734.14 682.492 734.158 682.552 734.193C682.611 734.229 682.659 734.281 682.689 734.343C683.178 735.313 683.262 736.273 682.941 737.197C682.511 738.432 681.362 739.533 679.706 740.298C679.658 740.32 679.605 740.332 679.552 740.332V740.332ZM682.133 734.883C680.841 734.942 680.013 735.255 679.607 735.836C679.024 736.67 679.327 738.094 679.767 739.453C681.027 738.794 681.921 737.898 682.249 736.958C682.481 736.291 682.442 735.594 682.133 734.883Z" fill="#651946"/>
<path d="M682.48 734.855C682.22 734.974 681.977 735.126 681.756 735.307C681.517 735.502 681.298 735.721 681.102 735.959C680.699 736.452 680.362 737.025 680.084 737.651C680.087 737.303 680.134 736.958 680.224 736.622C680.314 736.279 680.442 735.947 680.606 735.633C680.773 735.305 680.991 735.005 681.252 734.746C681.522 734.485 681.858 734.26 682.245 734.161C682.333 734.139 682.426 734.152 682.506 734.195C682.585 734.238 682.646 734.309 682.677 734.394C682.707 734.479 682.705 734.573 682.67 734.657C682.636 734.741 682.572 734.809 682.49 734.848L682.48 734.855Z" fill="#651B47"/>
<path d="M689.365 723.95C692.79 722.144 693.841 723.802 694.299 727.035C691.803 727.364 689.616 726.662 689.365 723.95Z" fill="#5BB25B"/>
<path d="M693.735 727.664C692.284 727.664 691.053 727.285 690.217 726.568C689.474 725.931 689.065 725.058 689.001 723.973C688.996 723.904 689.012 723.836 689.045 723.775C689.079 723.715 689.128 723.665 689.189 723.632C690.658 722.819 691.814 722.629 692.723 723.051C694.029 723.656 694.54 725.397 694.897 727.188C694.907 727.238 694.906 727.29 694.895 727.34C694.884 727.39 694.862 727.437 694.832 727.478C694.801 727.519 694.762 727.553 694.717 727.579C694.672 727.604 694.623 727.619 694.572 727.624C694.286 727.651 694.007 727.664 693.735 727.664ZM689.752 724.159C689.844 724.93 690.16 725.552 690.694 726.01C691.45 726.66 692.675 726.983 694.094 726.921C693.79 725.525 693.337 724.141 692.413 723.713C691.771 723.415 690.899 723.561 689.752 724.159Z" fill="#651946"/>
<path d="M689.292 723.592C689.677 723.483 690.081 723.509 690.445 723.599C690.801 723.692 691.14 723.841 691.449 724.041C691.748 724.231 692.025 724.453 692.275 724.705C692.522 724.951 692.736 725.226 692.913 725.526C692.382 725.132 691.801 724.812 691.185 724.573C690.896 724.465 690.597 724.386 690.293 724.337C690.011 724.291 689.725 724.282 689.441 724.31H689.428C689.336 724.319 689.245 724.293 689.172 724.238C689.098 724.182 689.048 724.102 689.032 724.012C689.015 723.922 689.032 723.828 689.081 723.75C689.129 723.673 689.205 723.616 689.293 723.591L689.292 723.592Z" fill="#651B47"/>
<path d="M704.593 736.12C701.94 733.661 700.589 734.901 699.393 737.71C701.566 738.61 703.709 738.506 704.593 736.12Z" fill="#5BB25B"/>
<path d="M701.413 738.645C700.669 738.645 699.852 738.487 699.004 738.172C698.959 738.156 698.918 738.13 698.884 738.096C698.85 738.063 698.823 738.022 698.805 737.978C698.788 737.933 698.78 737.886 698.782 737.838C698.784 737.79 698.796 737.743 698.817 737.7C699.573 736.172 700.455 734.724 701.781 734.492C702.703 734.33 703.7 734.783 704.829 735.872C704.875 735.917 704.908 735.974 704.923 736.037C704.939 736.099 704.936 736.165 704.916 736.227C704.595 737.189 704.014 737.878 703.19 738.273C702.673 738.522 702.07 738.645 701.413 738.645ZM699.606 737.656C700.872 738.056 702.055 738.059 702.894 737.656C703.487 737.372 703.925 736.887 704.193 736.213C703.303 735.396 702.55 735.053 701.898 735.166C700.963 735.33 700.217 736.47 699.606 737.656V737.656Z" fill="#651946"/>
<path d="M704.439 736.425C704.19 736.332 703.929 736.271 703.664 736.243C703.377 736.214 703.088 736.213 702.802 736.24C702.187 736.306 701.585 736.454 701.01 736.68C701.242 736.453 701.502 736.256 701.784 736.095C702.07 735.928 702.374 735.795 702.69 735.696C703.017 735.59 703.359 735.538 703.703 735.54C704.054 735.547 704.424 735.622 704.746 735.814C704.817 735.858 704.87 735.928 704.893 736.009C704.917 736.09 704.91 736.177 704.873 736.254C704.837 736.33 704.774 736.39 704.696 736.422C704.617 736.455 704.53 736.457 704.45 736.43L704.439 736.425Z" fill="#651B47"/>
<path d="M674.335 742.331C674.544 742.343 674.741 742.361 674.946 742.384C675.151 742.406 675.35 742.434 675.554 742.471C675.763 742.505 675.97 742.552 676.174 742.61C676.385 742.675 676.598 742.742 676.835 742.888L676.862 742.905C676.919 742.94 676.968 742.986 677.008 743.04C677.047 743.094 677.075 743.156 677.09 743.221C677.106 743.286 677.108 743.353 677.098 743.419C677.087 743.485 677.063 743.549 677.028 743.606C676.993 743.663 676.947 743.712 676.893 743.751C676.839 743.79 676.777 743.819 676.712 743.834C676.647 743.849 676.58 743.852 676.514 743.841C676.447 743.831 676.384 743.807 676.327 743.772C676.3 743.755 676.274 743.735 676.251 743.714C676.165 743.635 676.012 743.551 675.857 743.48C675.692 743.405 675.523 743.339 675.351 743.283C675.174 743.225 674.993 743.171 674.809 743.123C674.625 743.075 674.437 743.029 674.257 742.992H674.249C674.166 742.976 674.091 742.929 674.042 742.86C673.992 742.791 673.97 742.706 673.981 742.621C673.992 742.537 674.035 742.46 674.101 742.406C674.166 742.352 674.25 742.325 674.335 742.331V742.331Z" fill="#5BB25B"/>
<g opacity="0.3">
<path d="M674.335 742.331C674.544 742.343 674.741 742.361 674.946 742.384C675.151 742.406 675.35 742.434 675.554 742.471C675.763 742.505 675.97 742.552 676.174 742.61C676.385 742.675 676.598 742.742 676.835 742.888L676.862 742.905C676.919 742.94 676.968 742.986 677.008 743.04C677.047 743.094 677.075 743.156 677.09 743.221C677.106 743.286 677.108 743.353 677.098 743.419C677.087 743.485 677.063 743.549 677.028 743.606C676.993 743.663 676.947 743.712 676.893 743.751C676.839 743.79 676.777 743.819 676.712 743.834C676.647 743.849 676.58 743.852 676.514 743.841C676.447 743.831 676.384 743.807 676.327 743.772C676.3 743.755 676.274 743.735 676.251 743.714C676.165 743.635 676.012 743.551 675.857 743.48C675.692 743.405 675.523 743.339 675.351 743.283C675.174 743.225 674.993 743.171 674.809 743.123C674.625 743.075 674.437 743.029 674.257 742.992H674.249C674.166 742.976 674.091 742.929 674.042 742.86C673.992 742.791 673.97 742.706 673.981 742.621C673.992 742.537 674.035 742.46 674.101 742.406C674.166 742.352 674.25 742.325 674.335 742.331V742.331Z" fill="#6C174D"/>
</g>
<path d="M676.594 744.139C676.446 744.139 676.301 744.098 676.175 744.02C676.133 743.994 676.093 743.964 676.055 743.93C676.034 743.911 675.954 743.845 675.735 743.745C675.58 743.674 675.42 743.613 675.257 743.561C675.09 743.505 674.913 743.452 674.733 743.405C674.553 743.358 674.363 743.313 674.196 743.278C674.04 743.248 673.902 743.159 673.808 743.031C673.715 742.902 673.675 742.743 673.694 742.586C673.714 742.428 673.793 742.284 673.915 742.183C674.036 742.081 674.192 742.029 674.351 742.038V742.038C674.554 742.05 674.753 742.067 674.976 742.092C675.19 742.116 675.4 742.146 675.603 742.182C675.822 742.219 676.039 742.268 676.252 742.33C676.501 742.406 676.726 742.48 676.984 742.639L677.011 742.656C677.159 742.748 677.272 742.886 677.335 743.048C677.398 743.21 677.406 743.388 677.358 743.555C677.311 743.723 677.211 743.87 677.072 743.975C676.934 744.081 676.765 744.138 676.591 744.139H676.594ZM674.317 742.621C674.307 742.621 674.298 742.624 674.29 742.631C674.283 742.637 674.277 742.645 674.276 742.655C674.273 742.666 674.276 742.677 674.282 742.687C674.285 742.691 674.289 742.695 674.293 742.698C674.298 742.701 674.303 742.704 674.308 742.705C674.494 742.743 674.69 742.789 674.884 742.841C675.077 742.892 675.266 742.947 675.443 743.006C675.625 743.065 675.804 743.135 675.978 743.215C676.189 743.311 676.347 743.405 676.447 743.498C676.457 743.507 676.468 743.516 676.48 743.524C676.529 743.551 676.587 743.559 676.642 743.545C676.696 743.531 676.743 743.496 676.773 743.448C676.802 743.4 676.812 743.342 676.799 743.287C676.787 743.232 676.754 743.184 676.707 743.153L676.68 743.137C676.481 743.014 676.301 742.954 676.086 742.889C675.894 742.834 675.699 742.79 675.502 742.757C675.308 742.723 675.116 742.695 674.912 742.672C674.699 742.648 674.51 742.634 674.318 742.621H674.317Z" fill="#651946"/>
<path d="M674.799 742.727C673.619 738.411 668.66 741.931 668.66 741.931C668.66 741.931 672.558 746.598 674.799 742.727Z" fill="#5BB25B"/>
<g opacity="0.65">
<path d="M674.773 742.771C674.782 742.756 674.791 742.742 674.799 742.727C673.619 738.411 668.66 741.931 668.66 741.931C668.66 741.931 668.793 742.09 669.023 742.324C669.953 741.733 673.543 739.708 674.773 742.771Z" fill="white"/>
</g>
<path d="M672.466 744.554C670.321 744.554 668.171 742.229 668.076 742.125C668.048 742.094 668.027 742.057 668.014 742.017C668.001 741.977 667.997 741.934 668.002 741.892C668.007 741.85 668.022 741.81 668.044 741.774C668.066 741.738 668.096 741.708 668.131 741.684C668.255 741.603 671.201 739.684 673.312 740.479C674.181 740.806 674.777 741.537 675.081 742.65C675.091 742.687 675.094 742.726 675.089 742.764C675.084 742.803 675.071 742.84 675.052 742.873C674.471 743.877 673.704 744.437 672.772 744.538C672.67 744.549 672.568 744.554 672.466 744.554V744.554ZM668.76 741.987C669.4 742.607 671.146 744.126 672.71 743.958C673.414 743.882 674.011 743.454 674.484 742.687C674.224 741.831 673.761 741.274 673.107 741.026C671.634 740.47 669.539 741.537 668.76 741.987Z" fill="#651946"/>
<path d="M674.76 743.016C674.481 743 674.202 742.967 673.927 742.917C673.65 742.871 673.377 742.808 673.103 742.746C672.555 742.618 672.009 742.478 671.469 742.295C672.038 742.257 672.602 742.26 673.163 742.276C673.444 742.285 673.725 742.294 674.004 742.32C674.283 742.342 674.56 742.38 674.835 742.435C674.907 742.45 674.971 742.492 675.013 742.553C675.055 742.613 675.074 742.687 675.064 742.76C675.054 742.833 675.018 742.9 674.961 742.947C674.904 742.994 674.832 743.018 674.759 743.014L674.76 743.016Z" fill="#651B47"/>
<path d="M672.363 744.552C672.738 744.221 673.116 743.892 673.499 743.566C673.881 743.242 674.267 742.92 674.67 742.608C674.732 742.566 674.808 742.549 674.882 742.56C674.956 742.572 675.023 742.612 675.069 742.671C675.115 742.731 675.136 742.806 675.128 742.88C675.12 742.955 675.084 743.024 675.027 743.073C675.012 743.084 674.997 743.094 674.98 743.102H674.978C674.538 743.322 674.1 743.561 673.664 743.805C673.228 744.05 672.795 744.299 672.363 744.552Z" fill="#651946"/>
<path d="M674.813 742.782C674.813 742.782 672.296 742.935 671.719 747.291C671.72 747.291 676.861 745.655 674.813 742.782Z" fill="#5BB25B"/>
<g opacity="0.65">
<path d="M672.443 746.888C672.915 743.316 674.95 743.13 675.023 743.124C674.959 743.006 674.889 742.892 674.811 742.783C674.811 742.783 672.294 742.936 671.717 747.292C671.717 747.292 672.824 746.94 673.806 746.275C673.372 746.522 672.916 746.727 672.443 746.888V746.888Z" fill="white"/>
</g>
<path d="M671.72 747.584C671.678 747.584 671.637 747.575 671.599 747.558C671.561 747.541 671.528 747.516 671.5 747.485C671.473 747.453 671.452 747.417 671.44 747.377C671.428 747.337 671.425 747.295 671.43 747.254C672.031 742.711 674.683 742.499 674.795 742.492C674.845 742.489 674.894 742.498 674.939 742.52C674.984 742.541 675.022 742.574 675.051 742.614C675.569 743.34 675.712 744.065 675.478 744.768C674.876 746.576 671.933 747.531 671.808 747.571C671.78 747.58 671.75 747.584 671.72 747.584V747.584ZM674.675 743.101C674.171 743.215 672.627 743.809 672.084 746.846C672.895 746.519 674.543 745.728 674.925 744.583C675.084 744.105 675.002 743.619 674.675 743.101Z" fill="#651946"/>
<path d="M673.393 744.681C673.577 744.328 673.768 743.977 673.966 743.629C674.164 743.281 674.364 742.936 674.594 742.592C674.638 742.528 674.705 742.483 674.782 742.467C674.858 742.452 674.938 742.468 675.003 742.512C675.067 742.555 675.112 742.623 675.127 742.699C675.143 742.776 675.127 742.855 675.083 742.92C675.069 742.94 675.054 742.958 675.036 742.975C674.751 743.232 674.473 743.516 674.2 743.803C673.928 744.089 673.657 744.384 673.393 744.681Z" fill="#651946"/>
<path d="M674.792 742.771C674.792 742.771 672.445 741.848 673.244 737.526C673.244 737.526 677.625 740.671 674.792 742.771Z" fill="#5BB25B"/>
<g opacity="0.65">
<path d="M673.923 738.087C673.706 737.889 673.478 737.702 673.242 737.526C672.443 741.848 674.79 742.771 674.79 742.771C674.824 742.745 674.857 742.719 674.889 742.694C674.421 742.349 673.208 741.128 673.923 738.087Z" fill="white"/>
</g>
<path d="M674.791 743.062C674.755 743.062 674.719 743.055 674.685 743.042C674.58 743.001 672.126 741.98 672.957 737.473C672.965 737.424 672.986 737.379 673.018 737.341C673.049 737.303 673.089 737.273 673.135 737.254C673.181 737.236 673.23 737.23 673.279 737.236C673.328 737.242 673.375 737.26 673.415 737.289C673.521 737.365 676.025 739.183 676.039 741.088C676.045 741.829 675.684 742.474 674.966 743.005C674.916 743.042 674.854 743.063 674.791 743.062ZM673.452 738.064C673.03 741.119 674.314 742.162 674.758 742.426C675.23 742.034 675.458 741.597 675.454 741.094C675.445 739.887 674.122 738.626 673.452 738.064Z" fill="#651946"/>
<path d="M674.027 740.526C674.187 740.891 674.353 741.252 674.524 741.611C674.695 741.967 674.871 742.324 675.062 742.657C675.098 742.724 675.107 742.803 675.086 742.876C675.065 742.95 675.016 743.012 674.95 743.05C674.884 743.088 674.805 743.099 674.731 743.081C674.657 743.062 674.593 743.016 674.553 742.951C674.541 742.929 674.531 742.907 674.524 742.884C674.412 742.486 674.328 742.096 674.247 741.703C674.166 741.311 674.094 740.918 674.027 740.526Z" fill="#651946"/>
<path d="M670.345 754.573C670.352 754.588 670.362 754.601 670.375 754.611C670.395 754.625 670.417 754.635 670.441 754.639C670.534 754.657 670.63 754.657 670.724 754.639C670.95 754.605 671.2 754.519 671.443 754.417C671.932 754.21 672.413 753.938 672.883 753.65C673.822 753.068 674.729 752.414 675.615 751.734C676.5 751.055 677.363 750.34 678.206 749.604C678.417 749.42 678.626 749.235 678.834 749.047C679.044 748.86 679.244 748.671 679.462 748.482C679.57 748.388 679.675 748.291 679.784 748.199L680.117 747.932L680.284 747.798L680.456 747.671L680.8 747.416C682.661 746.101 684.723 745.12 686.85 744.366C687.913 743.986 688.992 743.66 690.087 743.388C691.179 743.11 692.284 742.889 693.398 742.728C691.197 743.175 689.038 743.809 686.945 744.622C685.902 745.029 684.882 745.49 683.889 746.006C682.903 746.521 681.958 747.111 681.062 747.771L680.734 748.026L680.57 748.154L680.411 748.288L680.094 748.555C679.991 748.647 679.89 748.742 679.789 748.835C679.585 749.019 679.382 749.221 679.177 749.413C678.973 749.605 678.765 749.8 678.557 749.99C677.724 750.754 676.869 751.493 675.991 752.206C675.11 752.916 674.209 753.604 673.244 754.22C672.761 754.526 672.266 754.82 671.724 755.061C671.45 755.179 671.168 755.29 670.839 755.346C670.655 755.381 670.467 755.381 670.283 755.346C670.169 755.321 670.06 755.275 669.963 755.21C669.86 755.139 669.774 755.046 669.712 754.938C669.665 754.854 669.654 754.755 669.679 754.663C669.705 754.571 669.765 754.492 669.848 754.444C669.931 754.396 670.029 754.382 670.122 754.405C670.215 754.429 670.295 754.487 670.345 754.569V754.573Z" fill="#6C174D"/>
<g opacity="0.3">
<path d="M712.889 737.726C713.202 737.645 713.407 737.394 713.348 737.166C713.289 736.938 712.988 736.818 712.675 736.899C712.363 736.98 712.157 737.231 712.217 737.459C712.276 737.688 712.577 737.807 712.889 737.726Z" fill="#6C174D"/>
</g>
<g opacity="0.3">
<path d="M710.266 736.492C710.774 736.36 711.108 735.952 711.012 735.581C710.916 735.21 710.426 735.016 709.918 735.147C709.41 735.279 709.076 735.687 709.172 736.058C709.268 736.429 709.758 736.623 710.266 736.492Z" fill="#6C174D"/>
</g>
<g opacity="0.3">
<path d="M704.222 732.304C704.605 732.159 704.823 731.798 704.709 731.498C704.596 731.197 704.193 731.07 703.81 731.215C703.428 731.359 703.209 731.72 703.323 732.021C703.436 732.322 703.839 732.448 704.222 732.304Z" fill="#6C174D"/>
</g>
<g opacity="0.3">
<path d="M711.18 725.042C711.444 724.942 711.595 724.692 711.517 724.484C711.438 724.276 711.16 724.189 710.895 724.289C710.631 724.389 710.48 724.638 710.558 724.846C710.637 725.054 710.915 725.142 711.18 725.042Z" fill="#6C174D"/>
</g>
<g opacity="0.3">
<path d="M712.123 730.412C712.424 730.299 712.596 730.015 712.507 729.779C712.417 729.543 712.101 729.443 711.8 729.557C711.5 729.671 711.328 729.954 711.417 730.19C711.507 730.427 711.823 730.526 712.123 730.412Z" fill="#6C174D"/>
</g>
<g opacity="0.3">
<path d="M706.427 728.155C706.501 728.349 706.36 728.583 706.111 728.677C705.863 728.77 705.603 728.688 705.529 728.493C705.456 728.299 705.597 728.065 705.845 727.971C706.093 727.878 706.354 727.96 706.427 728.155Z" fill="#6C174D"/>
</g>
<g opacity="0.3">
<path d="M698.05 735.267C698.286 735.096 698.37 734.807 698.235 734.621C698.101 734.435 697.8 734.422 697.564 734.593C697.327 734.764 697.244 735.053 697.378 735.239C697.512 735.426 697.813 735.438 698.05 735.267Z" fill="#6C174D"/>
</g>
<g opacity="0.3">
<path d="M699.226 730.209C699.461 730.04 699.543 729.753 699.41 729.568C699.277 729.384 698.979 729.371 698.744 729.541C698.509 729.71 698.426 729.997 698.559 730.182C698.693 730.367 698.991 730.379 699.226 730.209Z" fill="#6C174D"/>
</g>
<g opacity="0.3">
<path d="M683.25 743.673C683.561 743.448 683.671 743.067 683.494 742.822C683.318 742.577 682.922 742.561 682.61 742.786C682.298 743.011 682.188 743.392 682.365 743.637C682.542 743.882 682.938 743.898 683.25 743.673Z" fill="#6C174D"/>
</g>
<g opacity="0.3">
<path d="M683.54 739.904C683.804 739.714 683.896 739.392 683.747 739.185C683.597 738.977 683.263 738.964 682.999 739.154C682.735 739.344 682.643 739.666 682.792 739.873C682.941 740.08 683.276 740.094 683.54 739.904Z" fill="#6C174D"/>
</g>
<g opacity="0.3">
<path d="M677.822 747.021C677.996 746.895 678.057 746.684 677.958 746.547C677.86 746.411 677.64 746.402 677.466 746.527C677.293 746.652 677.232 746.864 677.33 747C677.428 747.137 677.649 747.146 677.822 747.021Z" fill="#6C174D"/>
</g>
<g opacity="0.3">
<path d="M683.671 733.143C683.935 732.953 684.027 732.631 683.878 732.424C683.728 732.217 683.393 732.203 683.13 732.393C682.866 732.583 682.773 732.905 682.923 733.112C683.072 733.32 683.407 733.333 683.671 733.143Z" fill="#6C174D"/>
</g>
<g opacity="0.3">
<path d="M688.897 729.559C689.241 729.31 689.362 728.89 689.167 728.619C688.972 728.348 688.534 728.33 688.19 728.579C687.846 728.827 687.725 729.248 687.92 729.518C688.115 729.789 688.553 729.807 688.897 729.559Z" fill="#6C174D"/>
</g>
<path d="M717.884 738.394C717.147 742.589 726.724 743.268 726.724 743.268C726.724 743.268 732.789 729.07 723.003 716.951C713.217 704.832 699.906 706.672 698.456 709.534C697.006 712.395 699.879 713.704 699.879 713.704C699.879 713.704 721.884 715.642 717.884 738.394Z" fill="#EB964F"/>
<g opacity="0.65">
<path d="M723.003 716.953C713.217 704.835 699.904 706.672 698.454 709.534C697.162 712.083 699.301 713.4 699.784 713.659C699.203 713.032 698.72 712.003 699.465 710.532C699.782 709.907 700.709 709.334 702.059 708.97C701.748 709.167 701.573 709.395 701.611 709.605C701.687 710.029 702.594 710.222 703.635 710.036C704.677 709.85 705.462 709.355 705.386 708.93C705.359 708.777 705.223 708.656 705.014 708.57C709.766 708.452 716.654 710.453 722.287 717.428C731.385 728.693 725.746 741.892 725.746 741.892C725.746 741.892 719.43 741.444 717.847 738.972C718.041 742.652 726.723 743.268 726.723 743.268C726.723 743.268 732.789 729.07 723.003 716.953Z" fill="white"/>
</g>
<g opacity="0.3">
<path d="M726.726 743.268C726.726 743.268 727.552 741.332 728.101 738.282C727.099 737.329 725.577 736.543 723.978 735.9C723.291 735.625 722.711 735.136 722.323 734.506C721.935 733.876 721.76 733.138 721.824 732.4C722.163 728.487 722.146 723.556 718.754 719.356C711.102 709.879 700.735 711.166 699.346 713.379C699.514 713.503 699.693 713.612 699.88 713.704C699.88 713.704 721.886 715.642 717.887 738.394C717.149 742.589 726.726 743.268 726.726 743.268Z" fill="#6C174D"/>
</g>
<path d="M726.725 743.686H726.695C726.426 743.667 720.071 743.19 718.055 740.607C717.522 739.924 717.326 739.155 717.473 738.322C718.662 731.562 717.635 726.007 714.423 721.817C709.219 715.028 699.935 714.129 699.842 714.121C699.794 714.116 699.748 714.103 699.705 714.083C699.647 714.056 698.274 713.417 697.792 712.043C697.499 711.208 697.597 710.3 698.082 709.342C698.652 708.219 700.583 707.356 703.124 707.089C708.67 706.503 716.891 708.719 723.33 716.689C728.469 723.053 729.224 729.984 728.952 734.679C728.658 739.759 727.173 743.286 727.11 743.433C727.077 743.508 727.024 743.572 726.955 743.617C726.887 743.662 726.807 743.686 726.725 743.686V743.686ZM717.884 738.394L718.296 738.466C718.191 739.065 718.327 739.596 718.713 740.09C720.273 742.088 725.176 742.697 726.449 742.823C726.8 741.895 727.881 738.744 728.117 734.6C728.375 730.061 727.64 723.361 722.677 717.215C716.451 709.505 708.537 707.361 703.209 707.921C700.678 708.188 699.184 709.018 698.827 709.723C698.45 710.466 698.366 711.152 698.578 711.762C698.89 712.662 699.764 713.175 699.995 713.295C700.447 713.342 702.652 713.612 705.435 714.604C708.266 715.614 712.238 717.595 715.081 721.301C718.446 725.685 719.527 731.461 718.296 738.466L717.884 738.394Z" fill="#6C174D"/>
<path d="M726.725 743.267C726.725 743.267 724.853 745.383 721.148 744.234C717.443 743.086 716.58 740.528 717.884 738.393C719.187 736.258 729.38 738.95 726.725 743.267Z" fill="#F5AE42"/>
<g opacity="0.3">
<path d="M726.725 743.268C726.725 743.268 724.853 745.384 721.148 744.235C717.443 743.087 716.58 740.529 717.884 738.394C719.187 736.259 729.38 738.951 726.725 743.268Z" fill="#6C174D"/>
</g>
<path d="M723.283 744.999C722.618 744.999 721.866 744.896 721.026 744.636C718.464 743.841 717.49 742.516 717.123 741.544C716.716 740.465 716.86 739.269 717.529 738.176C718.034 737.349 719.293 737.207 720.262 737.231C722.791 737.297 726.176 738.577 727.235 740.532C727.745 741.473 727.693 742.495 727.082 743.487C727.069 743.508 727.054 743.528 727.038 743.546C726.975 743.62 725.716 744.999 723.283 744.999ZM720.063 738.066C719.129 738.066 718.454 738.266 718.243 738.613C717.704 739.491 717.588 740.405 717.907 741.248C718.331 742.375 719.527 743.294 721.274 743.835C724.48 744.829 726.167 743.243 726.392 743.013C726.829 742.283 726.864 741.6 726.501 740.93C725.613 739.292 722.547 738.127 720.242 738.065C720.18 738.066 720.121 738.066 720.063 738.066V738.066Z" fill="#6C174D"/>
<path d="M705.082 711.887C704.999 711.7 704.959 711.498 704.963 711.294C704.965 711.088 705.002 710.883 705.075 710.691C705.145 710.493 705.26 710.313 705.409 710.165C705.557 710.016 705.746 709.914 705.952 709.872C705.854 710.063 705.748 710.206 705.668 710.369C705.582 710.52 705.504 710.676 705.434 710.835C705.365 710.996 705.304 711.163 705.247 711.337C705.19 711.512 705.139 711.692 705.082 711.887Z" fill="#6D174D"/>
<path d="M706.19 712.62C706.13 712.348 706.144 712.067 706.19 711.792C706.239 711.515 706.333 711.247 706.467 710.999C706.598 710.746 706.78 710.522 707.002 710.342C707.059 710.299 707.114 710.254 707.173 710.216C707.232 710.177 707.298 710.147 707.361 710.115C707.423 710.083 707.489 710.058 707.557 710.039C707.624 710.018 707.692 710.001 707.761 709.987C707.573 710.202 707.384 710.369 707.232 710.576C707.072 710.768 706.928 710.972 706.802 711.187C706.674 711.407 706.561 711.635 706.464 711.87C706.363 712.111 706.277 712.359 706.19 712.62Z" fill="#6D174D"/>
<path d="M721.854 730.474C722.083 730.288 722.359 730.166 722.642 730.075C722.93 729.987 723.229 729.945 723.53 729.951C723.835 729.951 724.137 730.014 724.417 730.134C724.486 730.167 724.555 730.196 724.622 730.233C724.688 730.27 724.749 730.316 724.81 730.36C724.872 730.402 724.929 730.451 724.981 730.506C725.034 730.56 725.086 730.613 725.134 730.671C724.841 730.595 724.588 730.493 724.318 730.446C724.055 730.387 723.788 730.351 723.519 730.337C723.246 730.324 722.972 730.331 722.7 730.356C722.421 730.38 722.143 730.423 721.854 730.474Z" fill="#6D174D"/>
<path d="M721.387 732.409C721.749 732.222 722.151 732.116 722.555 732.057C722.965 731.998 723.382 732.001 723.792 732.064C723.894 732.083 723.998 732.094 724.097 732.122C724.196 732.149 724.299 732.176 724.398 732.207C724.498 732.237 724.593 732.283 724.69 732.321L724.833 732.384L724.969 732.46C725.059 732.514 725.15 732.565 725.237 732.623C725.324 732.682 725.399 732.755 725.479 732.82C725.519 732.852 725.557 732.886 725.593 732.922L725.697 733.036C725.764 733.113 725.831 733.192 725.892 733.274C725.524 733.085 725.196 732.882 724.829 732.756L724.696 732.701L724.559 732.657C724.467 732.63 724.379 732.594 724.287 732.57C724.194 732.547 724.101 732.523 724.009 732.499C723.916 732.476 723.821 732.461 723.727 732.443C723.346 732.377 722.961 732.342 722.574 732.339C722.177 732.338 721.781 732.362 721.387 732.409Z" fill="#6D174D"/>
<path d="M709.43 729.048C712.396 727.482 713.307 728.92 713.703 731.722C711.541 732.005 709.647 731.397 709.43 729.048Z" fill="#5BB25B"/>
<path d="M713.212 732.263C711.954 732.263 710.89 731.935 710.166 731.314C709.522 730.762 709.168 730.006 709.112 729.067C709.108 729.007 709.122 728.948 709.151 728.895C709.18 728.843 709.223 728.8 709.275 728.771C710.548 728.067 711.549 727.902 712.336 728.267C713.467 728.792 713.909 730.3 714.219 731.851C714.228 731.894 714.227 731.939 714.217 731.982C714.207 732.026 714.189 732.066 714.162 732.102C714.136 732.138 714.102 732.167 714.063 732.189C714.025 732.211 713.982 732.224 713.938 732.228C713.691 732.252 713.449 732.263 713.212 732.263ZM709.763 729.23C709.842 729.898 710.116 730.437 710.579 730.834C711.234 731.396 712.294 731.674 713.523 731.623C713.261 730.414 712.868 729.217 712.069 728.845C711.512 728.584 710.756 728.711 709.763 729.23Z" fill="#651946"/>
<path d="M709.366 728.738C709.7 728.643 710.05 728.666 710.365 728.743C710.673 728.823 710.967 728.952 711.234 729.125C711.494 729.289 711.734 729.482 711.95 729.7C712.164 729.912 712.349 730.151 712.503 730.41C712.042 730.069 711.538 729.792 711.004 729.585C710.754 729.492 710.495 729.424 710.232 729.381C709.988 729.342 709.74 729.334 709.493 729.357H709.482C709.403 729.364 709.325 729.341 709.262 729.294C709.199 729.246 709.156 729.176 709.142 729.098C709.128 729.021 709.143 728.94 709.184 728.873C709.226 728.806 709.291 728.757 709.367 728.735L709.366 728.738Z" fill="#651B47"/>
<path d="M100.69 442.71C100.69 448.13 100.69 454.12 100.98 460.39C100.98 466.1 101.26 471.23 101.26 476.39C101.26 489.51 100.69 500.92 100.12 510.9C98.12 524.9 92.99 533.44 85 536.9C77.01 540.36 69.89 542 63.9 542C58.6588 541.984 53.4547 541.12 48.49 539.44C42.9353 537.541 37.8224 534.538 33.4589 530.611C29.0955 526.684 25.5718 521.915 23.1 516.59C18 504.32 13.41 481.5 9.41 448.7C5.13 415.89 2.57 384.52 1.41 355.14C0.57 325.76 0 302.93 0 287C0 260.76 0.86 234.8 2.28 208.84C4.85 166.87 10 130.64 18 100.12C26 69.6 37.4 49.92 52.23 41.12C105.27 13.7067 151.377 0 190.55 0C193.11 0 195.68 0.29 198.25 0.29C239 2.28 268.42 14.55 287 37.08C305.26 59.62 314.67 86.15 314.67 116.38C314.604 123.734 314.127 131.079 313.24 138.38C307.54 176.88 296.7 211.38 281.01 241.92C266.215 271.001 247.711 298.04 225.96 322.36C206.915 343.656 186.195 363.392 164 381.38C143.46 397.64 125.77 410.76 110.66 421.03C107.23 423.6 104.09 425.88 100.96 427.87C100.69 432.44 100.69 437.29 100.69 442.71ZM148 289C163.407 266.18 177.67 239.937 190.79 210.27C203.715 181.091 213.021 150.44 218.5 119C219.151 114.272 219.532 109.511 219.64 104.74C219.623 96.7242 218.568 88.7444 216.5 81C213.08 68.74 207.66 59.89 200.5 53.9C193.34 47.91 185.38 44.77 177.11 44.77C173.561 44.7419 170.02 45.1278 166.56 45.92C151.44 49.05 142.02 58.75 138.56 74.73C128.679 116.642 121.557 159.156 117.24 202C112.67 246.21 108.97 290.14 106.4 333.78C106.11 335.78 106.11 337.78 105.83 339.78C118.38 328.89 132.35 312.06 148 289Z" fill="#A0E548"/>
<path d="M474.66 435.58C470.38 416.18 467.24 397.92 464.66 380.81C463.23 371.68 461.8 363.98 460.66 357.7C444.97 359.98 427.29 363.41 407.61 367.4C403.9 368.26 400.19 369.11 396.48 369.68V422.17C395.63 435.01 389.64 444.17 378.48 448.98C367.32 453.79 357.09 456.11 347.67 456.11C342.402 456.089 337.15 455.516 332 454.4C316.88 450.98 306.61 442.137 301.19 427.87C297.19 410.47 295.48 390.79 295.48 368.26C295.48 355.42 296.06 342.01 297.2 327.47C301.037 286.523 309.849 246.196 323.44 207.38C337.13 167.44 356.24 133.5 381.06 106.11C395.32 91.8502 409.87 83.8602 424.42 81.5802C438.97 79.3002 449.52 78.1602 455.79 78.1602C470.905 78.1567 485.859 81.2645 499.72 87.2902C519.12 95.8402 531.39 110.96 536.24 132.64C543.08 194.54 548.784 263.38 553.35 339.16C556.49 386.23 559.35 428.16 562.48 464.67V465.24C562.48 474.37 557.91 481.5 548.48 486.35C539.368 491.268 529.166 493.82 518.81 493.77H517.1C505.69 493.2 497.1 489.49 491.72 482.07C484.64 470.38 478.94 454.69 474.66 435.58ZM453.55 278.12C453.27 264.71 452.7 251.59 451.84 238.47C450.98 225.35 449.84 214.22 448.42 205.09C447 195.96 444.99 190.83 442.42 189.69C441.881 189.462 441.295 189.366 440.71 189.41C436.14 189.41 431.29 193.97 427.01 202.81C421.88 212.81 417.32 225.06 413.01 239.89C408.7 254.72 405.31 268.71 402.74 282.4C400.17 295.8 398.46 305.22 398.17 310.92C407.02 310.35 416.43 310.07 425.84 309.5C435.54 309.21 445.24 308.92 455.22 308.35C454.69 299.8 454.12 289.53 453.55 278.12Z" fill="#A0E548"/>
<path d="M688.001 419.001C688.001 425.001 684.001 431.001 676.001 436.401C666.591 443.251 658.321 446.961 650.901 447.531C643.481 448.101 639.211 448.381 637.781 448.381C626.081 448.381 615.531 443.821 606.401 435.261C592.991 420.141 584.401 399.891 580.161 373.931C576.017 349.236 573.916 324.241 573.881 299.201C573.881 290.351 573.881 281.801 574.451 272.671C576.171 239.011 580.451 208.491 587.001 181.391C593.551 154.291 601.551 136.031 611.001 126.391C616.466 121.758 623.249 118.96 630.391 118.391C637.241 118.101 641.521 118.101 642.941 118.101C654.19 118.052 665.402 119.396 676.321 122.101C689.441 125.521 699.421 130.101 706.551 135.791C713.401 141.491 717.111 147.481 717.111 154.041C716.994 156.263 716.621 158.464 716.001 160.601C710.001 177.431 703.731 202.241 696.891 235.051C690.051 267.861 685.761 295.231 683.761 317.201C682.051 339.451 681.201 354.851 681.201 363.981C681.201 384.521 683.201 401.631 687.471 415.611C687.785 416.715 687.963 417.853 688.001 419.001V419.001Z" fill="#A0E548"/>
<path d="M829.001 446.421C829.001 450.981 829.001 455.541 829.291 460.681C829.291 465.241 829.571 469.521 829.571 473.801C829.571 484.071 829.001 493.481 828.431 501.471C826.431 512.591 821.301 519.721 813.311 522.581C805.311 525.141 798.191 526.581 792.201 526.581C787 526.62 781.819 525.947 776.801 524.581C765.391 521.161 756.801 515.171 751.411 506.041C746.277 496.041 741.714 477.784 737.721 451.271C733.636 426.244 730.965 401.008 729.721 375.681C728.871 352.011 728.301 333.751 728.301 320.631C728.301 299.521 729.151 278.411 730.581 257.631C733.151 223.971 738.281 194.631 746.271 169.771C754.271 145.241 765.661 129.271 780.501 122.141C833.501 100.141 879.761 89.0508 918.841 89.0508C921.411 89.0508 923.981 89.3308 926.541 89.3308C967.341 90.7608 996.721 100.741 1015.26 119.001C1033.51 137.251 1042.93 158.651 1042.93 182.891C1042.86 188.916 1042.38 194.93 1041.5 200.891C1035.8 231.981 1024.96 259.891 1009.27 284.461C993.9 308.487 975.382 330.348 954.211 349.461C933.351 368.001 912.531 384.001 892.281 396.781C871.741 409.901 854.051 420.781 838.931 429.011C835.511 431.011 832.371 432.721 829.241 434.441C829.001 438.141 829.001 442.141 829.001 446.421ZM876.301 322.331C892.573 302.55 906.902 281.248 919.091 258.721C931.827 235.659 941.148 210.871 946.761 185.131C947.409 181.262 947.79 177.352 947.901 173.431C947.857 166.936 946.797 160.488 944.761 154.321C941.341 144.621 935.921 137.201 928.761 132.321C921.872 127.617 913.712 125.126 905.371 125.181C901.834 125.195 898.303 125.483 894.811 126.041C879.691 128.611 870.281 136.311 866.811 149.431C856.945 183.034 849.788 217.374 845.411 252.121C840.851 287.781 837.141 323.121 834.571 358.521C834.291 359.941 834.291 361.661 834.001 363.371C846.641 354.561 860.611 340.871 876.301 322.331Z" fill="#A0E548"/>
<path d="M249.101 555.68C242.855 572.402 237.943 589.593 234.411 607.09C231.661 622.47 230.281 634.17 230.281 642.44C230.152 646.678 230.538 650.915 231.431 655.06C240.946 653.905 250.526 653.367 260.111 653.45H263.561C274.834 653.55 286.065 654.858 297.061 657.35C308.311 660.57 314.511 665.16 316.111 671.35C317.721 677.35 318.411 681.68 318.411 684.89C318.474 689.948 317.209 694.935 314.741 699.35C311.294 705.35 306.704 708.333 300.971 708.3C299.74 708.331 298.508 708.255 297.291 708.07C292.722 706.882 288.009 706.343 283.291 706.47C277.994 706.559 272.706 706.94 267.451 707.61C255.352 708.996 243.607 712.575 232.791 718.17C230.961 719.78 230.041 723.45 230.041 729.65V742C230.041 750.493 230.271 759.903 230.731 770.23C231.421 782.85 232.111 793.87 232.791 803.5C233.021 808.55 233.251 812.5 233.481 814.98C233.247 826 228.887 833.333 220.401 836.98C211.681 840.88 203.651 842.72 196.531 842.72C191.751 842.627 186.99 842.088 182.311 841.11C169.681 838.36 160.041 831.01 153.391 819.31C141.602 794.161 134.373 767.117 132.041 739.44C129.747 711.9 128.601 689.87 128.601 673.35C128.56 651.341 129.786 629.348 132.271 607.48C136.631 569.39 143.751 537.94 154.081 513.62C160.434 499.736 171.384 488.468 185.081 481.72C198.851 474.83 211.241 470.93 222.261 470.24C233.261 469.32 241.081 468.87 245.901 468.87C258.057 468.891 270.189 469.965 282.161 472.08C298.681 475.08 312.911 479.19 324.841 484.7C336.551 490.44 343.661 497.32 346.651 505.36C349.401 513.16 351.011 520.04 351.011 526.01C350.928 530.338 350.389 534.645 349.401 538.86C347.111 549.19 342.971 558.14 336.781 565.48C330.591 572.82 323.701 576.73 316.121 577.42C307.861 577.42 301.671 574.2 297.761 567.55C293.347 560.183 289.806 552.327 287.211 544.14C285.141 538.14 283.071 532.21 280.551 526.7C278.241 521.548 274.879 516.935 270.681 513.16C263.101 522.41 255.751 536.64 249.101 555.68Z" fill="#9AC1F0"/>
<path d="M557.31 594.24C550.89 574.5 540.79 559.36 527.48 548.57C509.58 535.49 488.247 527.916 463.48 525.85C458.66 525.39 453.61 525.39 448.79 525.39C428.685 525.521 408.744 529.012 389.79 535.72C369.59 542.6 354.68 553.85 344.35 569.46C341.82 574.04 340.68 577.95 340.68 581.16C340.68 583.68 341.82 586.44 344.12 589.65C346.911 593.325 350.427 596.388 354.45 598.65C356.56 599.819 358.49 601.287 360.18 603.01C360.84 603.698 361.246 604.59 361.33 605.54C361.312 606.28 361.072 606.998 360.64 607.6C352.38 618.6 345.27 633.08 339.3 651.44C333.77 668.56 330.982 686.448 331.04 704.44C331.04 705.82 331.04 711.78 331.27 722.34C331.5 732.9 337.27 745.75 348.48 761.13C359.48 776.5 378.08 786.37 404.25 791.19C415.85 793.158 427.594 794.162 439.36 794.19C461.049 794.21 482.463 789.329 502 779.91C521.73 770.5 537.34 755.12 548.58 733.78C559.893 712.618 566.195 689.142 567 665.16C567.23 661.48 567.23 658.04 567.23 654.6C567.281 634.07 563.929 613.673 557.31 594.24V594.24ZM483.42 687.65C480.926 703.837 475.972 719.549 468.73 734.24C461.84 748.24 453.81 756.24 444.4 758.33C432 756.5 423.29 751 418.24 741.58C413.647 733.32 411.35 723.45 411.35 711.97C411.35 710.14 411.58 705.55 412.04 697.74C412.27 689.94 415.25 678.74 420.3 664.24C425.288 650.153 432.006 636.74 440.3 624.31C441.787 621.906 442.58 619.137 442.59 616.31C442.59 611.72 439.84 606.67 433.87 600.94C428.14 595.2 418.5 592.44 404.96 592.22C404.651 590.939 404.497 589.627 404.5 588.31C404.5 585.31 405.42 580.51 407.5 574.54C409.57 568.35 413.5 561.92 418.75 555.72C424 550 430.17 547 437.52 547L439.35 547.23C454.27 549.07 465.74 557.33 473.35 571.33C480.96 585.33 485.51 602.54 487.12 622.74C487.58 628.74 487.81 634.9 487.81 640.87C487.69 656.56 486.221 672.211 483.42 687.65V687.65Z" fill="#9AC1F0"/>
<path d="M1092 601.59C1091.95 607.723 1091.57 613.849 1090.85 619.94C1087.41 647.26 1078.69 674.57 1064.69 701.65C1050.95 728.284 1033.74 752.979 1013.51 775.09C993.51 796.89 974.04 812.95 955.45 823.09C936.86 833.42 920.34 838.47 906.34 838.47C901.944 838.478 897.559 838.016 893.26 837.09C880.17 833.65 869.62 823.78 861.58 807.26C853.58 790.96 847.35 770.77 843.23 746.67C839.015 723.076 836.343 699.232 835.23 675.29C834.08 652.11 833.4 631 833.4 612.41C833.4 606.22 833.63 600.02 833.63 594.05C834.31 569.95 835 549.53 836.15 533.05C837.53 518.59 845.15 507.11 859.15 498.85C872.92 490.59 886.69 485.77 900.69 484.39C914.69 483.01 925.25 482.33 932.59 482.33C947.052 482.324 961.488 483.552 975.74 486C998.23 489.9 1018.65 496.78 1037.24 506.88C1055.6 516.75 1069.37 529.37 1078.32 544.98C1087.45 562.445 1092.15 581.885 1092 601.59V601.59ZM987.16 673.65C995.42 646.11 999.55 624.08 999.55 607.32C999.715 595.579 998.027 583.886 994.55 572.67C986.55 547.88 971.38 532.97 948.88 528.15H947.74C940.39 528.15 934.43 535.03 930.29 549.03C925.93 563.95 922.95 582.54 921.29 604.57C919.69 626.83 918.77 648.63 918.77 670.43V676.43C919 700.3 919.92 720.95 921.29 738.17C922.67 755.17 924.29 765.48 926.34 768.46C958.7 732.86 979.13 701.42 987.16 673.65Z" fill="#9AC1F0"/>
<path d="M807.47 606.86C802.19 590.57 791.4 575.86 774.88 563.26C758.36 550.66 735.18 543.261 705.57 541.461C701.67 541.231 697.77 541.23 694.32 541.23C679.15 541.23 666.32 542.59 655.95 545.3L655.34 545.461C652.605 546.189 649.914 547.074 647.28 548.11C638.69 551.38 632.54 555.54 628.84 560.51C611.93 574.6 591.9 601.01 583.84 649.41C583.71 650.16 583.59 650.92 583.46 651.68V651.75C583.23 653.2 583.01 654.681 582.81 656.211C581.877 663.054 581.416 669.954 581.43 676.86C581.43 687.65 582.81 700.27 585.56 715.19C588.32 729.88 595.2 742.96 605.99 754.43C617.681 765.465 631.689 773.749 646.99 778.68L689.61 660.17C690.61 657.51 692.41 655.86 694.42 655.86H702.42C704.42 655.86 706.28 657.53 707.23 660.19L748.7 776.47C758.267 772.683 767.179 767.415 775.11 760.86C784.75 752.6 793.24 739.971 800.58 723.451C807.7 706.931 812.29 688.57 814.35 668.37C814.81 663.37 815.04 658.501 815.04 653.451C815 638.761 812.52 623.16 807.47 606.86Z" fill="#9AC1F0"/>
<path d="M738.67 633.1C736.45 628.99 733.45 626.71 727.18 624.22C716.308 619.83 704.722 617.478 693 617.28C683.59 617.15 674.13 618.33 664.77 619.51C661.77 619.88 658.98 622.12 656.1 623.51L656.52 624.64L738.67 633.1Z" fill="#EFEFEF"/>
<path d="M716.83 618.38C717.57 612.69 713.93 606.13 707.74 602.71C700.63 598.78 693.64 599.33 687.16 604.09C683.52 606.76 680.91 610.26 681.05 615.17L687.93 604.66C687.77 607.56 686.63 609.87 686.19 612.3C686.03 613.19 687.42 615.2 688.28 615.3C697.77 616.49 707.3 617.4 716.83 618.38Z" fill="#EFEFEF"/>
<path d="M727.91 635.19C723.68 634.75 720.03 634.31 716.36 634.05C715.504 634.083 714.693 634.441 714.09 635.05C711.77 637.37 709.57 639.81 707.33 642.19C713.31 644.39 723 641.34 727.91 635.19Z" fill="#EFEFEF"/>
<path d="M667.07 629.37C668.16 634.85 678.95 641.131 684.81 639.711C681.9 631.311 675.85 627.8 667.07 629.37Z" fill="#EFEFEF"/>
<path d="M695.681 640.07C695.667 637.954 695.54 635.841 695.301 633.74C695.199 633.294 694.991 632.88 694.695 632.532C694.399 632.184 694.024 631.912 693.601 631.74C690.251 631.21 686.861 630.96 683.381 630.6C684.421 638.41 687.351 640.64 695.681 640.07Z" fill="#EFEFEF"/>
<path d="M697.119 640.21C704.819 642.5 709.589 640.09 710.619 633.39L706.059 632.92C698.489 632.14 698.489 632.14 697.119 640.21Z" fill="#EFEFEF"/>
<path d="M656 628.001C657.94 632.801 667 638.291 672.31 638.271C669.96 636.271 666.8 634.541 665.08 631.881C662.74 628.341 659.86 627.761 656 628.001Z" fill="#EFEFEF"/>
<path d="M720.17 643.73C726.62 642.93 733.27 642.19 738.22 636.64C735.87 636.08 733.22 635.36 731.5 636.27C727.49 638.34 723.9 641.21 720.17 643.73Z" fill="#EFEFEF"/>
<path d="M738.671 633.1L656.551 624.64L656.131 623.51C659.011 622.12 661.791 619.88 664.801 619.51C674.161 618.33 683.621 617.15 693.031 617.28C704.743 617.481 716.319 619.834 727.181 624.22C733.451 626.71 736.451 629 738.671 633.1Z" fill="white"/>
<path d="M716.83 618.38C707.3 617.38 697.77 616.49 688.28 615.31C687.42 615.2 686.03 613.19 686.19 612.31C686.63 609.88 687.77 607.57 687.93 604.67L681.05 615.18C680.91 610.27 683.52 606.77 687.16 604.1C693.64 599.34 700.63 598.79 707.74 602.72C713.93 606.13 717.57 612.69 716.83 618.38Z" fill="white"/>
<path d="M727.91 635.19C722.97 641.34 713.31 644.39 707.33 642.14C709.57 639.76 711.77 637.32 714.09 635C714.693 634.391 715.504 634.034 716.36 634C720 634.31 723.68 634.75 727.91 635.19Z" fill="white"/>
<path d="M667.07 629.37C675.85 627.8 681.9 631.311 684.81 639.711C679 641.131 668.16 634.85 667.07 629.37Z" fill="white"/>
<path d="M695.681 640.07C687.351 640.64 684.421 638.41 683.381 630.61C686.861 630.97 690.251 631.22 693.601 631.75C694.024 631.923 694.399 632.195 694.695 632.543C694.991 632.891 695.199 633.305 695.301 633.75C695.54 635.849 695.667 637.958 695.681 640.07V640.07Z" fill="white"/>
<path d="M697.119 640.21C698.489 632.14 698.489 632.14 706.059 632.92L710.619 633.39C709.589 640.09 704.819 642.5 697.119 640.21Z" fill="white"/>
<path d="M656 628C659.91 627.75 662.79 628.33 665.08 631.88C666.8 634.54 669.96 636.27 672.31 638.27C667 638.3 657.89 632.81 656 628Z" fill="white"/>
<path d="M720.17 643.73C723.9 641.21 727.49 638.34 731.5 636.27C733.26 635.36 735.87 636.08 738.22 636.64C733.27 642.19 726.62 642.93 720.17 643.73Z" fill="white"/>
</svg>
