<svg width="300" height="200" viewBox="0 0 300 200" fill="none" xmlns="http://www.w3.org/2000/svg">
<g clip-path="url(#clip0_3946_7011)">
<rect width="300" height="200" rx="15" fill="#26A6D1"/>
<g clip-path="url(#clip1_3946_7011)">
<path d="M29.3123 0.949219H271.688C281.244 0.949219 289 8.70485 289 18.27V182.739C289 192.296 281.244 200.051 271.688 200.051H29.3123C19.7471 200.052 12 192.296 12 182.74V18.27C12 8.70485 19.7556 0.949219 29.3123 0.949219Z" fill="#26A6D1"/>
<path d="M56.6663 70.1992L29.3123 130.733H62.0589L66.1185 121.081H75.3979L79.4575 130.733H115.502V123.366L118.714 130.733H137.359L140.571 123.211V130.733H215.535L224.65 121.332L233.185 130.733L271.688 130.811L244.247 100.635L271.688 70.1992H233.782L224.909 79.4264L216.643 70.1992H135.092L128.089 85.8235L120.922 70.1992H88.2442V77.3149L84.609 70.1992H56.6663ZM63.0026 78.7951H78.9648L97.1087 119.843V78.7951H114.595L128.609 108.226L141.524 78.7951H158.923V122.232H148.336L148.25 88.195L132.816 122.232H123.345L107.825 88.195V122.232H86.0454L81.9165 112.494H59.6094L55.489 122.223H43.82L63.0026 78.7951ZM168.609 78.7951H211.656L224.823 93.017L238.413 78.7951H251.579L231.575 100.626L251.579 122.206H237.816L224.65 107.819L210.99 122.206H168.609V78.7951ZM70.7677 86.1443L63.4184 103.492H78.1084L70.7677 86.1443ZM179.239 87.7887V95.7181H202.724V104.556H179.239V113.213H205.58L217.82 100.462L206.1 87.7811H179.239V87.7887Z" fill="white"/>
</g>
</g>
<defs>
<clipPath id="clip0_3946_7011">
<rect width="300" height="200" rx="15" fill="white"/>
</clipPath>
<clipPath id="clip1_3946_7011">
<rect width="277" height="277" fill="white" transform="translate(12 -38)"/>
</clipPath>
</defs>
</svg>
