<svg width="300" height="200" viewBox="0 0 300 200" fill="none" xmlns="http://www.w3.org/2000/svg">
<rect width="300" height="200" rx="15" fill="#0079BE"/>
<path d="M240.053 100.626C240.053 57.6743 204.271 27.987 165.065 28H131.327C91.6543 27.9857 59 57.6834 59 100.626C59 139.912 91.6551 172.189 131.327 171.999H165.065C204.268 172.188 240.053 139.902 240.053 100.626Z" fill="white"/>
<path d="M131.417 33.8945C95.1426 33.9058 65.7498 63.4909 65.7368 100.004C65.7459 136.511 95.14 166.092 131.417 166.105C167.699 166.094 197.101 136.512 197.105 100.004C197.1 63.49 167.7 33.9075 131.417 33.8945Z" fill="#0079BE"/>
<path d="M90.1578 99.9932C90.1924 82.1289 101.281 66.8952 116.916 60.8418V139.136C101.281 133.086 90.192 117.86 90.1578 99.9932ZM146.751 139.155V60.844C162.393 66.883 173.498 82.1254 173.526 99.998C173.498 117.876 162.393 133.107 146.751 139.158V139.155Z" fill="white"/>
</svg>
