<svg width="300" height="200" viewBox="0 0 300 200" fill="none" xmlns="http://www.w3.org/2000/svg">
<path d="M0 60C0 26.8629 26.8629 0 60 0H300V140C300 173.137 273.137 200 240 200H0V60Z" fill="#B82126"/>
<g clip-path="url(#clip0_3946_7025)">
<path d="M82.3564 35.0469H51.2637C37.5258 35.6983 26.2957 41.2448 23.0531 52.6833C21.3627 58.6493 20.4322 65.2002 19.1098 71.3847C12.3891 102.828 6.42891 135.137 0 165.953H242.062C260.777 165.953 273.625 161.989 277.098 147.1C278.711 140.184 280.256 132.349 281.8 124.75C287.816 95.1221 293.838 65.4951 300 35.0469H82.3564Z" fill="#B82126"/>
<path d="M207.246 113.258C203.889 116.552 194.465 117.488 195.429 109.613C196.23 103.072 203.334 101.682 211.033 102.627C210.461 106.204 209.804 110.747 207.246 113.258V113.258ZM196.641 87.7438C196.321 89.5482 195.828 91.1811 195.429 92.9068C199.273 91.9412 211.244 88.9791 212.397 94.1221C212.78 95.8314 212.119 97.6463 211.639 98.982C200.815 97.9541 191.992 99.7574 189.673 107.487C188.118 112.664 189.847 117.759 193.157 119.181C199.533 121.918 207.288 118.782 209.973 114.473C209.694 115.965 209.43 117.471 209.518 119.333H215.123C215.183 113.951 215.964 109.595 216.79 104.753C217.494 100.63 218.818 96.5468 218.607 92.9074C218.127 84.5726 204.352 87.5201 196.641 87.7438ZM252.846 115.839C248.46 115.933 246.28 113.213 246.18 108.702C246.005 100.802 249.462 92.024 256.482 91.2369C259.75 90.8704 262.116 91.6322 264.511 92.4522C262.313 101.326 263.106 115.618 252.846 115.839ZM267.389 74.0763C266.831 78.9832 266.085 83.7027 265.117 88.199C249.138 83.1294 239.338 94.9145 239.514 109.461C239.549 112.274 240.032 115.064 241.787 117.054C244.812 120.484 253.473 121.304 257.845 118.421C258.693 117.863 259.557 116.848 260.119 116.143C260.539 115.613 261.209 114.225 261.329 114.624C261.1 116.166 260.756 117.594 260.724 119.333H266.633C267.77 102.959 271.292 88.9726 273.904 74.0757L267.389 74.0763ZM100.594 113.41C97.108 117.11 88.5398 117.053 87.8684 110.828C87.5754 108.119 88.5826 105.278 89.0801 102.475C89.584 99.6381 89.9461 96.9162 90.443 94.4258C93.876 90.2237 103.963 89.7168 104.987 96.7042C105.875 102.771 103.48 110.345 100.594 113.41ZM105.745 87.7438C100.231 85.6681 93.5109 88.1462 90.5982 90.5039C90.6082 90.6073 90.5291 90.6214 90.443 90.6296C90.4928 90.5873 90.5467 90.5456 90.5982 90.5039C90.5979 90.4952 90.5967 90.4865 90.5947 90.4781C90.6439 89.4637 91.0002 88.7576 91.0494 87.7438H85.4443C83.1082 103.323 80.3385 118.466 77.4146 133.455H83.9291C84.8719 127.617 85.4947 121.459 86.8078 115.991C88.2955 121.742 98.0092 120.643 102.108 118.421C110.566 113.837 117.09 92.0164 105.745 87.7438ZM136.649 98.6784H121.349C121.833 95.1524 124.997 91.2763 129.984 91.0854C134.677 90.9051 138.036 92.8123 136.649 98.6784ZM130.438 87.1365C125.731 87.5001 121.753 88.8575 118.925 91.8443C115.456 95.5071 112.648 103.605 113.47 110.98C114.645 121.501 127.712 121.124 138.165 118.573C138.342 116.727 138.788 115.148 139.073 113.41C134.767 115.025 127.292 117.279 122.863 114.473C119.52 112.354 119.5 106.987 120.591 102.323C127.616 102.099 134.917 102.142 141.952 102.323C142.398 99.0173 143.675 95.4132 142.557 92.1485C141.084 87.8378 135.807 86.7224 130.438 87.1365ZM73.173 87.7438C72.9967 87.7697 73.0084 87.9847 73.0207 88.199C71.5857 98.9603 69.6434 109.213 67.5674 119.333H74.0818C75.6469 108.499 77.4398 97.8942 79.6869 87.7438H73.173ZM243.151 87.8954C237.394 85.0102 232.601 89.8519 230.729 92.7553C231.262 91.2657 231.292 89.2716 231.789 87.7438H226.032C224.48 98.5908 222.608 109.117 220.427 119.333H227.092C227.135 115.146 227.955 112.049 228.607 107.942C230 99.1753 232.045 89.5612 242.242 92.4522C242.58 90.9691 242.721 89.2875 243.151 87.8954ZM169.978 111.891C169.378 110.336 169.222 107.767 169.372 105.816C169.709 101.427 171.304 96.0851 173.766 93.6669C177.163 90.3289 183.87 90.881 189.218 92.7553C189.384 90.948 189.746 89.3362 189.976 87.5923C181.203 86.1562 172.878 87.0496 168.463 91.6922C164.143 96.2378 161.31 106.684 163.312 113.258C165.656 120.949 176.164 121.367 184.674 118.421C185.05 116.875 185.249 115.152 185.583 113.561C180.933 115.983 172.045 117.242 169.978 111.891ZM166.343 87.7438C160.566 85.4055 156.026 89.3573 153.921 93.0596C154.397 91.4126 154.595 89.4836 154.98 87.7438H149.224C147.816 98.6854 145.742 108.958 143.77 119.333H150.285C151.198 113.174 151.591 104.873 153.617 98.982C155.236 94.2748 159.472 90.2643 165.585 92.4522C165.671 90.7154 166.167 89.3897 166.343 87.7438ZM61.3559 74.9873C60.4254 81.0402 59.3771 86.9756 58.326 92.9074C51.5771 92.9785 44.6865 93.2416 38.1773 92.7547C39.4066 86.9521 40.2885 80.7993 41.5096 74.9867H34.2381C31.6348 89.7926 29.2676 104.833 26.3613 119.333H33.784C34.9488 111.894 36.0375 104.38 37.5709 97.3127C43.9008 97.1559 51.4869 96.8839 57.5689 97.4643C56.315 104.813 54.7992 111.899 53.6303 119.333H61.0535C63.4383 104.31 65.952 89.4155 68.9314 74.9879L61.3559 74.9873ZM79.8381 81.6692C81.1371 80.7729 82.8094 76.6877 80.8986 74.9873C80.2934 74.4487 79.2809 74.2924 77.8693 74.5321C76.5586 74.7535 75.8051 75.1993 75.2936 75.8983C74.4697 77.0219 73.7156 80.4105 74.99 81.6692C76.231 82.8951 79.0119 82.239 79.8381 81.6692Z" fill="white"/>
</g>
<defs>
<clipPath id="clip0_3946_7025">
<rect width="300" height="131" fill="white" transform="translate(0 35)"/>
</clipPath>
</defs>
</svg>
