<svg width="300" height="200" viewBox="0 0 300 200" fill="none" xmlns="http://www.w3.org/2000/svg">
<rect width="300" height="200" rx="15" fill="#141B34"/>
<path d="M122 152H179V48H122V152Z" fill="#FF5F00"/>
<path d="M125.852 100C125.837 90.0156 128.092 80.1579 132.448 71.1696C136.804 62.1813 143.148 54.2968 151 48.11C141.244 40.4572 129.527 35.6982 117.189 34.3768C104.851 33.0554 92.3897 35.225 81.2288 40.6375C70.0678 46.05 60.6579 54.4872 54.0746 64.9846C47.4912 75.4819 44 87.616 44 100C44 112.384 47.4912 124.518 54.0746 135.015C60.6579 145.513 70.0678 153.95 81.2288 159.362C92.3897 164.775 104.851 166.945 117.189 165.623C129.527 164.302 141.244 159.543 151 151.89C143.148 145.702 136.806 137.818 132.45 128.83C128.094 119.841 125.838 109.984 125.852 100Z" fill="#EB001B"/>
<path d="M256.999 100C257.067 112.358 253.654 124.484 247.155 134.983C240.655 145.482 231.332 153.927 220.258 159.348C209.184 164.769 196.809 166.944 184.557 165.625C172.305 164.305 160.673 159.543 151 151.887C158.802 145.69 165.106 137.804 169.439 128.819C173.772 119.833 176.023 109.981 176.023 100C176.023 90.0188 173.772 80.1668 169.439 71.1813C165.106 62.1958 158.802 54.3095 151 48.1125C160.673 40.4569 172.305 35.6953 184.557 34.3755C196.809 33.0556 209.184 35.2312 220.258 40.652C231.332 46.0727 240.655 54.5184 247.155 65.0174C253.654 75.5164 257.067 87.6423 256.999 100Z" fill="#F79E1B"/>
</svg>
