<svg width="300" height="200" viewBox="0 0 300 200" fill="none" xmlns="http://www.w3.org/2000/svg">
<rect width="300" height="200" rx="15" fill="#32BCAD"/>
<path d="M194.557 143.162C188.241 143.162 182.301 140.702 177.833 136.24L153.685 112.089C151.989 110.39 149.034 110.396 147.341 112.089L123.104 136.326C120.912 138.528 118.306 140.274 115.436 141.463C112.565 142.651 109.487 143.259 106.38 143.25H101.621L132.206 173.835C141.757 183.386 157.242 183.386 166.795 173.835L197.466 143.16L194.557 143.162ZM106.38 57.748C112.696 57.748 118.636 60.2066 123.104 64.6704L147.341 88.911C148.182 89.7512 149.323 90.2231 150.513 90.2231C151.702 90.2231 152.843 89.7512 153.685 88.911L177.833 64.7586C180.025 62.5568 182.631 60.8113 185.502 59.6231C188.372 58.4349 191.45 57.8276 194.557 57.8362H197.466L166.795 27.1633C157.242 17.6122 141.757 17.6122 132.204 27.1633L101.623 57.748H106.38Z" fill="white"/>
<path d="M222.835 83.2048L204.3 64.6685C203.892 64.8326 203.452 64.9351 202.984 64.9351H194.557C190.17 64.9479 185.966 66.6905 182.857 69.7845L158.71 93.9287C157.635 95.0058 156.357 95.8599 154.951 96.4419C153.544 97.0239 152.037 97.3223 150.515 97.3202C148.993 97.3226 147.485 97.0245 146.079 96.4428C144.672 95.8612 143.395 95.0075 142.319 93.9307L118.08 69.6942C114.971 66.5999 110.767 64.8572 106.38 64.8449H96.0174C95.5766 64.8449 95.1624 64.7424 94.7728 64.5947L76.1648 83.2048C66.6117 92.7558 66.6117 108.241 76.1648 117.796L94.7728 136.402C95.1624 136.254 95.5766 136.152 96.0174 136.152H106.38C110.767 136.14 114.971 134.398 118.08 131.305L142.317 107.068C146.697 102.69 154.333 102.688 158.71 107.068L182.857 131.214C185.966 134.308 190.17 136.051 194.557 136.064H202.984C203.452 136.064 203.892 136.166 204.3 136.33L222.837 117.794C232.388 108.243 232.388 92.7579 222.837 83.2027" fill="white"/>
</svg>
