<svg width="300" height="200" viewBox="0 0 300 200" fill="none" xmlns="http://www.w3.org/2000/svg">
<g clip-path="url(#clip0_3945_6997)">
<rect width="300" height="200" rx="15" fill="white"/>
<path d="M190.255 57C171.368 57 154.49 66.882 154.49 85.1397C154.49 106.078 184.424 107.524 184.424 118.043C184.424 122.471 179.396 126.436 170.808 126.436C158.621 126.436 149.511 120.896 149.511 120.896L145.614 139.321C145.614 139.321 156.107 144 170.039 144C190.689 144 206.938 133.633 206.938 115.063C206.938 92.9381 176.879 91.5348 176.879 81.7719C176.879 78.3019 181.006 74.5006 189.57 74.5006C199.231 74.5006 207.114 78.5296 207.114 78.5296L210.929 60.7352C210.929 60.7352 202.352 57 190.255 57ZM17.4574 58.3431L17 61.029C17 61.029 24.9459 62.4968 32.1024 65.4252C41.3168 68.7828 41.9734 70.7376 43.5252 76.8089L60.4357 142.615H83.1051L118.029 58.3431H95.4114L72.971 115.64L63.8141 67.0723C62.9743 61.5139 58.7205 58.3431 53.5136 58.3431H17.4574ZM127.123 58.3431L109.381 142.615H130.948L148.628 58.3428H127.123V58.3431ZM247.411 58.3431C242.211 58.3431 239.455 61.1537 237.433 66.0652L205.836 142.615H228.453L232.829 129.856H260.383L263.044 142.615H283L265.59 58.3431H247.411ZM250.353 81.1107L257.057 112.734H239.096L250.353 81.1107Z" fill="#1434CB"/>
<rect x="-7" y="170" width="314" height="43" fill="#DFA43B"/>
<rect x="-7" y="-12" width="314" height="43" fill="#1434CB"/>
</g>
<defs>
<clipPath id="clip0_3945_6997">
<rect width="300" height="200" rx="15" fill="white"/>
</clipPath>
</defs>
</svg>
