<svg width="300" height="200" viewBox="0 0 300 200" fill="none" xmlns="http://www.w3.org/2000/svg">
<g clip-path="url(#clip0_3947_6992)">
<rect width="300" height="200" rx="15" fill="#54923C"/>
<path fill-rule="evenodd" clip-rule="evenodd" d="M54 200H246V155.248H54V200Z" fill="#DB9600"/>
<path d="M246 156.075H54V-33H246V156.075Z" fill="#54923C"/>
<path d="M224.381 138.504H181.581L166.78 82.7009H177.371C179.482 82.9013 187.603 79.6882 187.587 71.6637C187.559 64.3848 180.921 64.5386 178.583 64.4407H165.378L136.777 138.504H94.3785L65.7778 60.2164H100.777L114.579 101.767L130.98 36.9351H193.676C210.625 36.9351 224.381 51.4486 224.381 69.35C224.381 81.5033 218.042 92.0978 208.672 97.6432L224.381 138.5V138.504ZM91.0214 187.87V165.176C92.9955 164.819 94.9985 164.647 97.0043 164.663C100.044 164.663 102.254 165.233 103.635 166.371C105.016 167.51 105.708 169.045 105.711 170.978C105.735 172.271 105.327 173.534 104.55 174.566C103.729 175.628 102.603 176.412 101.325 176.812C102.98 177.461 104.102 179.02 104.691 181.488C105.62 185.254 106.232 187.381 106.528 187.87H103.261C102.952 187.334 102.442 185.514 101.731 182.409C101.369 180.795 100.827 179.651 100.106 178.979C99.3848 178.306 98.3703 177.972 97.0624 177.975H94.1835V187.87H91.0214ZM94.1835 167.366V175.589H97.3456C98.9321 175.589 100.196 175.2 101.137 174.424C101.596 174.052 101.963 173.577 102.207 173.038C102.452 172.499 102.568 171.91 102.546 171.318C102.546 169.943 102.093 168.89 101.181 168.168C100.269 167.445 98.9546 167.087 97.2342 167.087C96.207 167.056 95.1798 167.149 94.1742 167.361L94.1835 167.366ZM123.629 180.265H111.694C111.74 182.05 112.289 183.417 113.342 184.366C114.394 185.315 115.76 185.789 117.44 185.787C119.078 185.821 120.707 185.532 122.234 184.934L122.78 187.152C121.156 187.883 119.241 188.247 117.033 188.245C114.47 188.245 112.43 187.483 110.911 185.96C109.393 184.436 108.634 182.411 108.634 179.885C108.634 177.36 109.363 175.243 110.821 173.536C112.279 171.829 114.236 170.975 116.692 170.973C118.961 170.973 120.701 171.731 121.911 173.247C123.122 174.763 123.728 176.622 123.731 178.823C123.742 179.303 123.708 179.782 123.629 180.256V180.265ZM111.728 177.979H120.671C120.671 176.556 120.306 175.409 119.576 174.538C118.847 173.666 117.802 173.233 116.455 173.233C115.864 173.215 115.275 173.322 114.727 173.547C114.179 173.772 113.685 174.109 113.275 174.538C112.436 175.406 111.92 176.553 111.728 177.979ZM130.975 187.875H127.811V173.776H125.508V171.353H127.829V170.603C127.829 168.246 128.366 166.422 129.44 165.129C130.515 163.837 132.007 163.192 133.917 163.195C134.812 163.183 135.702 163.346 136.535 163.675L136.162 166.131C135.537 165.87 134.865 165.743 134.188 165.756C132.034 165.756 130.957 167.337 130.959 170.5V171.353H135.005V173.776H130.975V187.87V187.875ZM151.136 180.265H139.205C139.252 182.05 139.802 183.417 140.856 184.366C141.91 185.315 143.275 185.789 144.949 185.787C146.588 185.821 148.217 185.531 149.743 184.934L150.287 187.152C148.666 187.883 146.751 188.247 144.541 188.245C141.977 188.245 139.937 187.483 138.421 185.96C136.904 184.436 136.144 182.411 136.141 179.885C136.141 177.36 136.871 175.243 138.33 173.536C139.79 171.829 141.746 170.975 144.199 170.973C146.467 170.973 148.207 171.731 149.421 173.247C150.634 174.763 151.24 176.622 151.239 178.823C151.251 179.303 151.217 179.782 151.136 180.256V180.265ZM139.236 177.979H148.179C148.179 176.556 147.814 175.409 147.085 174.538C146.356 173.666 145.315 173.232 143.962 173.233C143.371 173.215 142.783 173.322 142.235 173.547C141.688 173.772 141.193 174.109 140.784 174.538C139.944 175.406 139.427 176.553 139.236 177.979ZM158.208 187.875H155.048V171.353H158.208V187.87V187.875ZM158.652 166.341C158.66 166.61 158.612 166.879 158.512 167.129C158.412 167.379 158.261 167.606 158.069 167.795C157.878 167.984 157.649 168.131 157.398 168.227C157.147 168.324 156.879 168.367 156.611 168.354C156.343 168.363 156.076 168.317 155.827 168.217C155.578 168.117 155.352 167.966 155.165 167.774C154.981 167.585 154.836 167.36 154.74 167.114C154.644 166.868 154.598 166.605 154.605 166.341C154.601 166.081 154.65 165.824 154.748 165.583C154.846 165.343 154.992 165.125 155.176 164.943C155.369 164.752 155.6 164.604 155.852 164.506C156.105 164.408 156.375 164.363 156.646 164.374C156.912 164.366 157.177 164.412 157.424 164.509C157.672 164.607 157.897 164.755 158.085 164.943C158.269 165.125 158.414 165.343 158.512 165.583C158.609 165.824 158.657 166.082 158.652 166.341ZM174.938 184.871L175.516 187.26C174.058 187.896 172.484 188.221 170.894 188.215L170.084 189.543C170.733 189.612 171.342 189.895 171.813 190.349C172.021 190.549 172.187 190.789 172.299 191.055C172.411 191.321 172.468 191.607 172.466 191.896C172.486 192.295 172.408 192.692 172.239 193.053C172.07 193.414 171.814 193.727 171.495 193.965C170.85 194.45 169.96 194.693 168.825 194.695C168.001 194.717 167.188 194.503 166.48 194.08L166.989 192.579C167.541 192.919 168.177 193.097 168.825 193.092C169.824 193.092 170.323 192.738 170.323 192.032C170.323 191.255 169.427 190.789 167.637 190.634L169.057 188.117C166.857 187.822 165.133 186.912 163.887 185.386C162.641 183.861 162.018 181.997 162.018 179.794C162.018 177.211 162.862 175.097 164.551 173.452C166.24 171.807 168.455 170.986 171.198 170.989C172.689 170.959 174.167 171.274 175.516 171.91L174.838 174.333C173.709 173.768 172.46 173.487 171.198 173.515C169.396 173.515 167.955 174.085 166.875 175.225C165.795 176.365 165.253 177.831 165.25 179.622C165.25 181.441 165.8 182.909 166.901 184.026C168.001 185.142 169.412 185.7 171.133 185.699C172.446 185.701 173.744 185.421 174.941 184.878L174.938 184.871ZM191.125 177.881V183.923C191.102 185.249 191.193 186.574 191.397 187.884H188.506L188.132 185.766C186.894 187.428 185.16 188.259 182.929 188.259C181.366 188.259 180.114 187.793 179.173 186.861C178.719 186.431 178.359 185.912 178.116 185.335C177.873 184.758 177.752 184.137 177.761 183.511C177.761 181.51 178.628 179.98 180.362 178.921C182.095 177.861 184.628 177.329 187.961 177.325V177.017C187.961 175.852 187.642 174.92 187.002 174.277C186.361 173.634 185.409 173.298 184.151 173.298C182.564 173.272 181.005 173.711 179.663 174.561L178.95 172.478C180.535 171.479 182.427 170.979 184.627 170.978C186.77 170.978 188.39 171.569 189.486 172.751C190.582 173.933 191.123 175.642 191.111 177.877L191.125 177.881ZM188.03 182.239V179.508C185.379 179.508 183.537 179.826 182.505 180.463C181.472 181.1 180.957 181.976 180.958 183.091C180.958 183.967 181.218 184.65 181.734 185.146C182.009 185.399 182.332 185.595 182.683 185.723C183.034 185.85 183.406 185.907 183.779 185.89C184.891 185.919 185.972 185.518 186.797 184.769C187.611 184.026 188.019 183.183 188.021 182.239H188.03ZM182.249 168.692H180.652C180.652 167.605 180.848 166.75 181.242 166.129C181.409 165.839 181.65 165.599 181.942 165.435C182.233 165.271 182.563 165.189 182.897 165.197C183.405 165.197 184.141 165.459 185.107 165.982C185.787 166.369 186.307 166.56 186.67 166.56C187.204 166.56 187.499 166.073 187.554 165.094H189.121C189.121 167.347 188.347 168.473 186.8 168.473C186.244 168.473 185.53 168.223 184.657 167.723C183.977 167.336 183.468 167.142 183.127 167.142C182.616 167.142 182.323 167.653 182.242 168.678L182.249 168.692ZM211.595 179.44C211.632 181.063 211.252 182.668 210.49 184.1C209.78 185.406 208.704 186.474 207.395 187.171C206.075 187.888 204.596 188.258 203.096 188.248C200.692 188.248 198.708 187.458 197.143 185.88C195.578 184.302 194.796 182.259 194.798 179.75C194.798 177.075 195.607 174.944 197.224 173.357C198.841 171.769 200.878 170.977 203.332 170.98C205.779 170.98 207.768 171.767 209.299 173.34C210.83 174.914 211.595 176.948 211.595 179.443V179.44ZM198.03 179.645C198.03 181.453 198.511 182.945 199.474 184.121C199.899 184.678 200.448 185.127 201.077 185.434C201.705 185.741 202.396 185.897 203.096 185.89C203.808 185.898 204.514 185.743 205.158 185.436C205.802 185.128 206.367 184.677 206.81 184.117C207.801 182.933 208.295 181.408 208.294 179.543C208.294 177.825 207.839 176.359 206.929 175.146C206.018 173.933 204.774 173.328 203.195 173.331C201.596 173.331 200.336 173.931 199.413 175.13C198.491 176.329 198.027 177.834 198.02 179.645H198.03Z" fill="white"/>
<rect x="53" y="156" width="193" height="45" fill="#811892"/>
<path d="M61.1962 189H57.5854L65.6987 166.455H69.6287L77.742 189H74.1312L67.7572 170.55H67.5811L61.1962 189ZM61.8016 180.171H73.5147V183.033H61.8016V180.171ZM84.0251 166.455V189H80.7335V166.455H84.0251ZM88.4533 189V172.091H91.7448V189H88.4533ZM90.1156 169.482C89.5431 169.482 89.0514 169.291 88.6404 168.909C88.2368 168.52 88.0349 168.058 88.0349 167.522C88.0349 166.979 88.2368 166.517 88.6404 166.135C89.0514 165.746 89.5431 165.552 90.1156 165.552C90.688 165.552 91.176 165.746 91.5797 166.135C91.9907 166.517 92.1962 166.979 92.1962 167.522C92.1962 168.058 91.9907 168.52 91.5797 168.909C91.176 169.291 90.688 169.482 90.1156 169.482ZM96.173 189V172.091H99.3324V174.843H99.5416C99.8939 173.911 100.47 173.184 101.27 172.663C102.07 172.135 103.028 171.871 104.143 171.871C105.273 171.871 106.22 172.135 106.983 172.663C107.754 173.192 108.323 173.918 108.69 174.843H108.866C109.269 173.94 109.912 173.221 110.792 172.685C111.673 172.142 112.722 171.871 113.941 171.871C115.475 171.871 116.726 172.351 117.695 173.313C118.671 174.274 119.159 175.724 119.159 177.661V189H115.867V177.969C115.867 176.825 115.555 175.995 114.932 175.482C114.308 174.968 113.563 174.711 112.697 174.711C111.625 174.711 110.792 175.041 110.198 175.702C109.603 176.355 109.306 177.195 109.306 178.223V189H106.026V177.76C106.026 176.843 105.739 176.105 105.167 175.548C104.595 174.99 103.85 174.711 102.932 174.711C102.308 174.711 101.732 174.876 101.204 175.206C100.683 175.529 100.261 175.981 99.9379 176.56C99.6223 177.14 99.4645 177.812 99.4645 178.575V189H96.173ZM130.858 189.341C129.192 189.341 127.757 188.985 126.554 188.273C125.358 187.554 124.433 186.545 123.78 185.246C123.134 183.94 122.811 182.41 122.811 180.656C122.811 178.924 123.134 177.397 123.78 176.076C124.433 174.755 125.343 173.724 126.51 172.983C127.684 172.241 129.056 171.871 130.627 171.871C131.581 171.871 132.506 172.029 133.401 172.344C134.296 172.66 135.1 173.155 135.812 173.83C136.524 174.505 137.085 175.382 137.496 176.461C137.907 177.533 138.113 178.835 138.113 180.369V181.536H124.671V179.07H134.887C134.887 178.204 134.711 177.437 134.359 176.77C134.007 176.094 133.511 175.562 132.873 175.173C132.242 174.784 131.5 174.59 130.649 174.59C129.724 174.59 128.917 174.817 128.227 175.272C127.545 175.72 127.016 176.307 126.642 177.034C126.275 177.753 126.091 178.535 126.091 179.379V181.305C126.091 182.435 126.29 183.397 126.686 184.189C127.09 184.982 127.651 185.587 128.37 186.006C129.089 186.417 129.93 186.622 130.891 186.622C131.515 186.622 132.084 186.534 132.597 186.358C133.111 186.174 133.555 185.903 133.929 185.543C134.304 185.184 134.59 184.74 134.788 184.211L137.904 184.773C137.654 185.69 137.206 186.494 136.561 187.184C135.922 187.866 135.118 188.398 134.15 188.78C133.188 189.154 132.091 189.341 130.858 189.341ZM145.056 178.96V189H141.765V172.091H144.924V174.843H145.133C145.522 173.948 146.132 173.228 146.961 172.685C147.797 172.142 148.851 171.871 150.12 171.871C151.272 171.871 152.282 172.113 153.148 172.597C154.014 173.074 154.685 173.786 155.162 174.733C155.639 175.68 155.878 176.85 155.878 178.245V189H152.586V178.641C152.586 177.415 152.267 176.458 151.628 175.768C150.99 175.071 150.113 174.722 148.997 174.722C148.234 174.722 147.555 174.887 146.961 175.217C146.374 175.548 145.908 176.032 145.563 176.67C145.225 177.302 145.056 178.065 145.056 178.96ZM168.185 172.091V174.733H158.949V172.091H168.185ZM161.426 168.04H164.718V184.035C164.718 184.674 164.813 185.154 165.004 185.477C165.195 185.793 165.44 186.009 165.741 186.127C166.05 186.237 166.384 186.292 166.743 186.292C167.007 186.292 167.239 186.274 167.437 186.237C167.635 186.2 167.789 186.171 167.899 186.149L168.493 188.868C168.303 188.941 168.031 189.015 167.679 189.088C167.327 189.169 166.886 189.213 166.358 189.22C165.492 189.235 164.685 189.081 163.936 188.758C163.187 188.435 162.582 187.936 162.12 187.261C161.657 186.585 161.426 185.738 161.426 184.718V168.04ZM176.747 189.374C175.676 189.374 174.707 189.176 173.841 188.78C172.975 188.376 172.289 187.793 171.782 187.029C171.283 186.266 171.034 185.33 171.034 184.222C171.034 183.268 171.217 182.483 171.584 181.866C171.951 181.25 172.446 180.762 173.07 180.402C173.694 180.043 174.391 179.771 175.162 179.588C175.932 179.404 176.718 179.265 177.518 179.169C178.531 179.052 179.352 178.957 179.984 178.883C180.615 178.802 181.073 178.674 181.36 178.498C181.646 178.322 181.789 178.036 181.789 177.639V177.562C181.789 176.601 181.517 175.856 180.974 175.327C180.439 174.799 179.639 174.535 178.575 174.535C177.466 174.535 176.593 174.781 175.955 175.272C175.323 175.757 174.887 176.296 174.645 176.891L171.551 176.186C171.918 175.159 172.454 174.329 173.158 173.698C173.87 173.06 174.689 172.597 175.613 172.311C176.538 172.018 177.51 171.871 178.531 171.871C179.206 171.871 179.921 171.951 180.677 172.113C181.44 172.267 182.152 172.553 182.813 172.972C183.481 173.39 184.027 173.988 184.453 174.766C184.879 175.537 185.092 176.538 185.092 177.771V189H181.877V186.688H181.745C181.532 187.114 181.213 187.532 180.787 187.943C180.362 188.354 179.815 188.695 179.147 188.967C178.479 189.239 177.679 189.374 176.747 189.374ZM177.463 186.732C178.373 186.732 179.151 186.552 179.796 186.193C180.45 185.833 180.945 185.364 181.283 184.784C181.628 184.197 181.8 183.569 181.8 182.901V180.722C181.683 180.839 181.455 180.949 181.118 181.052C180.787 181.147 180.409 181.232 179.984 181.305C179.558 181.371 179.143 181.433 178.74 181.492C178.336 181.544 177.998 181.588 177.727 181.624C177.088 181.705 176.505 181.841 175.977 182.032C175.455 182.222 175.037 182.498 174.722 182.857C174.413 183.21 174.259 183.679 174.259 184.266C174.259 185.081 174.56 185.697 175.162 186.116C175.764 186.527 176.531 186.732 177.463 186.732ZM196.598 189.341C194.962 189.341 193.553 188.971 192.371 188.229C191.197 187.481 190.294 186.45 189.663 185.136C189.032 183.822 188.716 182.318 188.716 180.623C188.716 178.905 189.039 177.39 189.685 176.076C190.331 174.755 191.241 173.724 192.415 172.983C193.589 172.241 194.973 171.871 196.565 171.871C197.85 171.871 198.994 172.109 200 172.586C201.005 173.056 201.816 173.717 202.433 174.568C203.057 175.419 203.427 176.414 203.545 177.551H200.341C200.165 176.759 199.761 176.076 199.13 175.504C198.506 174.931 197.67 174.645 196.62 174.645C195.703 174.645 194.899 174.887 194.209 175.371C193.527 175.848 192.995 176.531 192.613 177.419C192.232 178.3 192.041 179.342 192.041 180.545C192.041 181.778 192.228 182.843 192.602 183.738C192.976 184.633 193.505 185.327 194.187 185.819C194.877 186.31 195.688 186.556 196.62 186.556C197.244 186.556 197.809 186.442 198.316 186.215C198.829 185.98 199.259 185.646 199.604 185.213C199.956 184.78 200.202 184.259 200.341 183.65H203.545C203.427 184.743 203.071 185.719 202.477 186.578C201.882 187.437 201.086 188.112 200.088 188.604C199.097 189.095 197.934 189.341 196.598 189.341ZM195.409 188.912H197.567L197.391 189.815C198.029 189.917 198.587 190.174 199.064 190.585C199.541 190.996 199.78 191.616 199.78 192.446C199.787 193.436 199.358 194.24 198.492 194.857C197.633 195.473 196.389 195.781 194.76 195.781L194.694 193.943C195.457 193.943 196.073 193.833 196.543 193.613C197.02 193.392 197.262 193.036 197.27 192.545C197.277 192.053 197.094 191.708 196.719 191.51C196.352 191.312 195.765 191.172 194.958 191.092L195.409 188.912ZM211.985 189.374C210.914 189.374 209.945 189.176 209.079 188.78C208.213 188.376 207.527 187.793 207.021 187.029C206.522 186.266 206.272 185.33 206.272 184.222C206.272 183.268 206.455 182.483 206.822 181.866C207.189 181.25 207.685 180.762 208.309 180.402C208.932 180.043 209.63 179.771 210.4 179.588C211.171 179.404 211.956 179.265 212.756 179.169C213.769 179.052 214.591 178.957 215.222 178.883C215.853 178.802 216.312 178.674 216.598 178.498C216.884 178.322 217.027 178.036 217.027 177.639V177.562C217.027 176.601 216.756 175.856 216.213 175.327C215.677 174.799 214.877 174.535 213.813 174.535C212.705 174.535 211.831 174.781 211.193 175.272C210.562 175.757 210.125 176.296 209.883 176.891L206.789 176.186C207.156 175.159 207.692 174.329 208.397 173.698C209.109 173.06 209.927 172.597 210.852 172.311C211.776 172.018 212.749 171.871 213.769 171.871C214.444 171.871 215.16 171.951 215.915 172.113C216.679 172.267 217.391 172.553 218.051 172.972C218.719 173.39 219.266 173.988 219.691 174.766C220.117 175.537 220.33 176.538 220.33 177.771V189H217.115V186.688H216.983C216.77 187.114 216.451 187.532 216.026 187.943C215.6 188.354 215.053 188.695 214.385 188.967C213.717 189.239 212.917 189.374 211.985 189.374ZM212.701 186.732C213.611 186.732 214.389 186.552 215.035 186.193C215.688 185.833 216.183 185.364 216.521 184.784C216.866 184.197 217.038 183.569 217.038 182.901V180.722C216.921 180.839 216.693 180.949 216.356 181.052C216.026 181.147 215.648 181.232 215.222 181.305C214.796 181.371 214.382 181.433 213.978 181.492C213.574 181.544 213.237 181.588 212.965 181.624C212.327 181.705 211.743 181.841 211.215 182.032C210.694 182.222 210.275 182.498 209.96 182.857C209.652 183.21 209.497 183.679 209.497 184.266C209.497 185.081 209.798 185.697 210.4 186.116C211.002 186.527 211.769 186.732 212.701 186.732ZM210.631 170.043L208.419 169.977C208.419 168.759 208.745 167.787 209.398 167.06C210.059 166.333 210.874 165.97 211.842 165.97C212.29 165.97 212.683 166.047 213.02 166.201C213.358 166.348 213.673 166.521 213.967 166.719C214.268 166.91 214.565 167.082 214.859 167.236C215.16 167.383 215.493 167.456 215.86 167.456C216.286 167.456 216.631 167.295 216.895 166.972C217.167 166.649 217.303 166.249 217.303 165.772L219.471 165.915C219.471 167.141 219.141 168.106 218.48 168.81C217.82 169.508 217.009 169.86 216.048 169.867C215.526 169.867 215.093 169.794 214.749 169.647C214.411 169.493 214.11 169.32 213.846 169.13C213.582 168.931 213.31 168.755 213.031 168.601C212.752 168.447 212.418 168.37 212.029 168.37C211.618 168.37 211.281 168.531 211.017 168.854C210.76 169.17 210.631 169.566 210.631 170.043ZM231.837 189.341C230.251 189.341 228.868 188.978 227.686 188.251C226.505 187.525 225.587 186.508 224.934 185.202C224.281 183.896 223.954 182.369 223.954 180.623C223.954 178.868 224.281 177.335 224.934 176.021C225.587 174.707 226.505 173.687 227.686 172.961C228.868 172.234 230.251 171.871 231.837 171.871C233.422 171.871 234.805 172.234 235.987 172.961C237.168 173.687 238.086 174.707 238.739 176.021C239.392 177.335 239.719 178.868 239.719 180.623C239.719 182.369 239.392 183.896 238.739 185.202C238.086 186.508 237.168 187.525 235.987 188.251C234.805 188.978 233.422 189.341 231.837 189.341ZM231.848 186.578C232.875 186.578 233.726 186.307 234.402 185.763C235.077 185.22 235.576 184.498 235.899 183.595C236.229 182.692 236.394 181.698 236.394 180.612C236.394 179.533 236.229 178.542 235.899 177.639C235.576 176.729 235.077 175.999 234.402 175.449C233.726 174.898 232.875 174.623 231.848 174.623C230.813 174.623 229.954 174.898 229.272 175.449C228.596 175.999 228.094 176.729 227.763 177.639C227.44 178.542 227.279 179.533 227.279 180.612C227.279 181.698 227.44 182.692 227.763 183.595C228.094 184.498 228.596 185.22 229.272 185.763C229.954 186.307 230.813 186.578 231.848 186.578Z" fill="white"/>
</g>
<defs>
<clipPath id="clip0_3947_6992">
<rect width="300" height="200" rx="15" fill="white"/>
</clipPath>
</defs>
</svg>
