<svg width="300" height="200" viewBox="0 0 300 200" fill="none" xmlns="http://www.w3.org/2000/svg">
<g clip-path="url(#clip0_3946_7030)">
<rect width="300" height="200" rx="15" fill="#54923C"/>
<g clip-path="url(#clip1_3946_7030)">
<path fill-rule="evenodd" clip-rule="evenodd" d="M54 200H246V155.248H54V200Z" fill="#DB9600"/>
<path d="M246 156.075H54V-33H246V156.075Z" fill="#54923C"/>
<path d="M224.381 138.504H181.581L166.78 82.7009H177.371C179.482 82.9013 187.603 79.6882 187.587 71.6637C187.559 64.3848 180.921 64.5386 178.583 64.4407H165.378L136.777 138.504H94.3785L65.7779 60.2164H100.777L114.579 101.767L130.98 36.9351H193.676C210.625 36.9351 224.381 51.4486 224.381 69.35C224.381 81.5033 218.042 92.0978 208.672 97.6432L224.381 138.5V138.504ZM91.0214 187.87V165.176C92.9955 164.819 94.9985 164.647 97.0044 164.663C100.044 164.663 102.254 165.233 103.635 166.371C105.016 167.51 105.708 169.045 105.711 170.978C105.735 172.27 105.327 173.534 104.55 174.566C103.729 175.628 102.603 176.412 101.325 176.812C102.98 177.461 104.102 179.02 104.691 181.488C105.62 185.254 106.232 187.381 106.528 187.87H103.261C102.952 187.334 102.442 185.514 101.731 182.409C101.369 180.795 100.827 179.651 100.106 178.979C99.3848 178.306 98.3703 177.971 97.0624 177.975H94.1835V187.87H91.0214ZM94.1835 167.366V175.589H97.3456C98.9321 175.589 100.196 175.2 101.137 174.424C101.596 174.052 101.963 173.577 102.208 173.038C102.452 172.499 102.568 171.91 102.546 171.318C102.546 169.943 102.093 168.89 101.181 168.168C100.269 167.445 98.9546 167.087 97.2342 167.087C96.207 167.056 95.1798 167.149 94.1742 167.361L94.1835 167.366ZM123.629 180.265H111.694C111.74 182.05 112.289 183.417 113.342 184.366C114.394 185.315 115.76 185.789 117.44 185.787C119.078 185.821 120.707 185.532 122.234 184.934L122.78 187.152C121.156 187.883 119.241 188.247 117.033 188.245C114.47 188.245 112.43 187.483 110.911 185.96C109.393 184.436 108.634 182.411 108.634 179.885C108.634 177.359 109.363 175.243 110.821 173.536C112.279 171.829 114.236 170.975 116.692 170.973C118.961 170.973 120.701 171.731 121.911 173.247C123.122 174.763 123.728 176.622 123.731 178.823C123.742 179.303 123.708 179.782 123.629 180.256V180.265ZM111.728 177.979H120.671C120.671 176.556 120.306 175.409 119.576 174.538C118.847 173.666 117.802 173.233 116.455 173.233C115.864 173.215 115.275 173.322 114.727 173.547C114.179 173.772 113.685 174.109 113.275 174.538C112.436 175.406 111.92 176.553 111.728 177.979ZM130.975 187.875H127.811V173.776H125.508V171.353H127.829V170.602C127.829 168.246 128.366 166.422 129.44 165.129C130.515 163.837 132.007 163.192 133.917 163.195C134.812 163.183 135.702 163.346 136.535 163.675L136.162 166.131C135.537 165.87 134.865 165.743 134.188 165.756C132.034 165.756 130.957 167.337 130.959 170.5V171.353H135.006V173.776H130.975V187.87V187.875ZM151.136 180.265H139.205C139.252 182.05 139.802 183.417 140.856 184.366C141.91 185.315 143.275 185.789 144.949 185.787C146.588 185.821 148.217 185.531 149.743 184.934L150.287 187.152C148.666 187.883 146.751 188.247 144.541 188.245C141.977 188.245 139.938 187.483 138.421 185.96C136.904 184.436 136.144 182.411 136.141 179.885C136.141 177.359 136.871 175.243 138.33 173.536C139.79 171.829 141.746 170.975 144.199 170.973C146.467 170.973 148.207 171.731 149.421 173.247C150.634 174.763 151.24 176.622 151.239 178.823C151.251 179.303 151.217 179.782 151.136 180.256V180.265ZM139.236 177.979H148.179C148.179 176.556 147.814 175.409 147.085 174.538C146.356 173.666 145.315 173.231 143.963 173.233C143.371 173.215 142.783 173.322 142.235 173.547C141.688 173.772 141.193 174.109 140.784 174.538C139.944 175.406 139.428 176.553 139.236 177.979ZM158.208 187.875H155.048V171.353H158.208V187.87V187.875ZM158.652 166.341C158.66 166.61 158.612 166.879 158.512 167.129C158.412 167.379 158.261 167.606 158.069 167.795C157.878 167.984 157.649 168.131 157.398 168.227C157.147 168.324 156.879 168.367 156.611 168.354C156.343 168.363 156.076 168.317 155.827 168.217C155.578 168.117 155.352 167.966 155.165 167.774C154.981 167.585 154.836 167.36 154.74 167.114C154.644 166.868 154.598 166.605 154.605 166.341C154.601 166.081 154.65 165.824 154.748 165.583C154.846 165.343 154.992 165.125 155.176 164.943C155.369 164.752 155.6 164.604 155.852 164.506C156.105 164.408 156.375 164.363 156.646 164.374C156.912 164.366 157.177 164.412 157.424 164.509C157.672 164.607 157.897 164.755 158.085 164.943C158.269 165.125 158.414 165.343 158.512 165.583C158.609 165.824 158.657 166.081 158.652 166.341ZM174.938 184.871L175.516 187.26C174.058 187.896 172.484 188.221 170.894 188.215L170.084 189.543C170.733 189.612 171.342 189.895 171.813 190.349C172.021 190.549 172.187 190.789 172.299 191.055C172.411 191.321 172.468 191.607 172.466 191.896C172.486 192.295 172.408 192.692 172.239 193.053C172.07 193.414 171.814 193.727 171.495 193.965C170.85 194.45 169.96 194.693 168.825 194.695C168.001 194.717 167.188 194.503 166.48 194.08L166.989 192.579C167.541 192.919 168.177 193.096 168.825 193.092C169.824 193.092 170.323 192.738 170.323 192.031C170.323 191.255 169.427 190.789 167.637 190.633L169.057 188.117C166.857 187.822 165.133 186.912 163.887 185.386C162.641 183.861 162.018 181.997 162.018 179.794C162.018 177.211 162.862 175.097 164.551 173.452C166.24 171.807 168.455 170.986 171.198 170.989C172.689 170.959 174.167 171.274 175.516 171.91L174.838 174.333C173.709 173.768 172.46 173.487 171.198 173.515C169.396 173.515 167.955 174.085 166.875 175.225C165.795 176.365 165.253 177.831 165.25 179.622C165.25 181.441 165.8 182.909 166.901 184.026C168.001 185.142 169.412 185.7 171.133 185.699C172.446 185.701 173.744 185.421 174.941 184.878L174.938 184.871ZM191.125 177.881V183.923C191.102 185.249 191.193 186.574 191.397 187.884H188.506L188.132 185.766C186.894 187.428 185.16 188.259 182.929 188.259C181.366 188.259 180.114 187.793 179.173 186.861C178.719 186.431 178.359 185.912 178.116 185.335C177.873 184.758 177.752 184.137 177.761 183.511C177.761 181.51 178.628 179.98 180.362 178.921C182.095 177.861 184.628 177.329 187.961 177.325V177.017C187.961 175.852 187.642 174.92 187.002 174.277C186.361 173.634 185.409 173.298 184.151 173.298C182.564 173.272 181.005 173.711 179.663 174.561L178.95 172.478C180.535 171.479 182.427 170.979 184.627 170.978C186.77 170.978 188.39 171.569 189.486 172.751C190.582 173.933 191.123 175.642 191.111 177.877L191.125 177.881ZM188.03 182.239V179.508C185.379 179.508 183.537 179.826 182.505 180.463C181.472 181.1 180.957 181.976 180.958 183.091C180.958 183.967 181.218 184.65 181.734 185.146C182.009 185.399 182.332 185.595 182.683 185.723C183.034 185.85 183.406 185.907 183.779 185.89C184.891 185.919 185.972 185.518 186.797 184.769C187.612 184.026 188.019 183.183 188.021 182.239H188.03ZM182.249 168.692H180.652C180.652 167.605 180.848 166.75 181.242 166.129C181.409 165.839 181.65 165.599 181.942 165.435C182.233 165.271 182.563 165.188 182.897 165.197C183.405 165.197 184.141 165.459 185.107 165.982C185.787 166.369 186.308 166.56 186.67 166.56C187.204 166.56 187.499 166.073 187.554 165.094H189.121C189.121 167.347 188.347 168.473 186.8 168.473C186.244 168.473 185.53 168.223 184.657 167.723C183.977 167.336 183.468 167.142 183.127 167.142C182.616 167.142 182.324 167.653 182.242 168.678L182.249 168.692ZM211.595 179.44C211.632 181.063 211.252 182.668 210.49 184.1C209.78 185.406 208.704 186.474 207.395 187.171C206.075 187.888 204.596 188.258 203.096 188.248C200.692 188.248 198.708 187.458 197.143 185.88C195.578 184.302 194.796 182.259 194.798 179.75C194.798 177.075 195.607 174.944 197.224 173.357C198.841 171.769 200.878 170.977 203.332 170.98C205.779 170.98 207.768 171.767 209.299 173.34C210.83 174.914 211.595 176.948 211.595 179.443V179.44ZM198.03 179.645C198.03 181.453 198.511 182.945 199.474 184.121C199.899 184.678 200.448 185.127 201.077 185.434C201.705 185.741 202.396 185.897 203.096 185.89C203.809 185.898 204.514 185.743 205.158 185.436C205.802 185.128 206.367 184.677 206.81 184.117C207.801 182.933 208.295 181.408 208.294 179.543C208.294 177.825 207.839 176.359 206.929 175.146C206.019 173.933 204.774 173.328 203.195 173.331C201.596 173.331 200.336 173.93 199.413 175.13C198.491 176.329 198.027 177.834 198.02 179.645H198.03Z" fill="white"/>
</g>
</g>
<defs>
<clipPath id="clip0_3946_7030">
<rect width="300" height="200" rx="15" fill="white"/>
</clipPath>
<clipPath id="clip1_3946_7030">
<rect width="192" height="233" fill="white" transform="translate(54 -33)"/>
</clipPath>
</defs>
</svg>
